<svg version="1.1" id="Layer_1" xmlns="http://www.w3.org/2000/svg" xmlns:xlink="http://www.w3.org/1999/xlink" x="0px" y="0px"
	 width="100%" viewBox="0 0 300 168" enable-background="new 0 0 300 168" xml:space="preserve">
<path fill="#FEFEFF" opacity="1.000000" stroke="none" 
	d="
M193.000000,169.000000 
	C128.666672,169.000000 64.833351,169.000000 1.000017,169.000000 
	C1.000011,113.000015 1.000011,57.000031 1.000006,1.000032 
	C100.999969,1.000021 200.999939,1.000021 300.999939,1.000011 
	C300.999939,56.999969 300.999939,112.999939 300.999969,168.999954 
	C265.166656,169.000000 229.333328,169.000000 193.000000,169.000000 
M37.001030,68.998390 
	C37.001030,68.998390 36.991573,68.986122 36.691067,69.231606 
	C36.488441,69.432976 36.422447,69.672043 36.115894,70.564667 
	C36.068085,71.040428 36.020279,71.516190 35.586021,72.721931 
	C35.428734,77.800781 35.002800,82.889977 35.197910,87.955254 
	C35.358288,92.118927 36.256046,96.254189 36.907288,101.075066 
	C37.993233,102.514961 38.784210,104.435806 40.215050,105.313354 
	C47.249241,109.627472 54.172001,114.337921 61.725189,117.493713 
	C65.114555,118.909828 70.196014,117.842606 73.953484,116.426537 
	C78.991707,114.527779 83.601082,111.369316 88.177963,108.415993 
	C90.734161,106.766563 92.851921,104.437675 95.691063,102.113220 
	C95.808472,101.740677 95.925880,101.368134 96.241852,100.812119 
	C96.241852,100.812119 96.200760,100.544914 96.813156,99.975128 
	C97.182632,93.545868 97.810585,87.117058 97.822029,80.687164 
	C97.828606,76.989784 96.836639,73.290634 96.777855,68.940880 
	C97.908401,67.107117 99.131653,65.323128 100.148842,63.428501 
	C101.890205,60.185051 101.302666,57.128002 98.375549,55.048290 
	C95.355438,52.902508 92.097847,53.046265 89.382904,55.877445 
	C88.136925,57.176769 87.108810,58.685024 85.324677,59.860779 
	C82.874596,58.459408 80.237259,57.303707 78.011978,55.607430 
	C72.780296,51.619450 66.898689,50.616390 61.007008,52.759720 
	C56.406059,54.433491 52.316765,57.513706 47.401955,60.006832 
	C47.127316,60.278301 46.852673,60.549770 46.244614,60.848888 
	C46.244614,60.848888 45.998169,61.075157 45.454403,61.111546 
	C45.208603,61.367256 44.962803,61.622967 44.190319,61.949856 
	C43.778442,62.261711 43.366570,62.573563 42.364899,62.976795 
	C42.100819,63.258770 41.836739,63.540749 40.985844,63.998260 
	C39.934574,65.209930 38.883305,66.421608 37.318138,67.912079 
	C37.208416,68.273056 37.098690,68.634033 37.001030,68.998390 
M148.261581,96.436523 
	C148.759537,96.436287 149.339905,96.604012 149.741318,96.407036 
	C151.580826,95.504318 153.370224,94.499512 155.177612,93.531349 
	C153.292480,92.433586 151.515182,91.015739 149.490082,90.333450 
	C147.681244,89.724030 145.598816,89.926704 143.637100,89.771027 
	C143.648438,89.281113 143.659775,88.791199 143.671097,88.301285 
	C145.834656,88.202637 148.121109,88.496567 150.119736,87.870979 
	C151.513596,87.434685 152.512985,85.738190 153.688583,84.604614 
	C152.539246,84.042244 151.436279,83.319206 150.225479,82.969826 
	C149.305725,82.704430 148.200714,83.103806 147.264740,82.866211 
	C146.015549,82.549103 144.850220,81.901527 143.648880,81.395897 
	C144.924393,80.796501 146.155502,80.058868 147.486267,79.631531 
	C149.284378,79.054115 151.196701,78.826477 152.983414,78.222244 
	C153.761749,77.959023 154.349792,77.133049 155.024246,76.562645 
	C154.288422,75.869011 153.620056,74.676941 152.805298,74.566704 
	C148.963776,74.046913 145.087128,73.667099 141.213287,73.544640 
	C138.194321,73.449203 136.820724,75.092781 136.985703,78.262337 
	C137.183884,82.069611 137.026810,85.895103 137.033096,89.712700 
	C137.043396,95.974182 137.470886,96.392029 143.879196,96.435471 
	C145.041016,96.443352 146.202942,96.436272 148.261581,96.436523 
M170.455963,90.617790 
	C171.068130,91.400200 171.639069,92.219536 172.300476,92.957817 
	C174.018936,94.875992 175.694946,97.976799 178.691864,95.753922 
	C182.011612,93.291557 178.778183,91.201744 177.448517,89.130264 
	C177.282593,88.871788 177.212769,88.551643 177.108337,88.256172 
	C180.800735,83.311989 181.108444,78.912338 177.977417,75.829491 
	C175.171036,73.066284 164.920731,72.370872 162.070770,74.966644 
	C161.297043,75.671349 160.995987,77.197578 160.963760,78.360222 
	C160.839798,82.830910 160.686462,87.324738 161.033493,91.771744 
	C161.157684,93.363457 162.668503,94.846970 163.546448,96.379860 
	C164.755920,95.133240 165.950958,93.872154 167.179779,92.644905 
	C168.053497,91.772293 168.972763,90.945274 170.455963,90.617790 
M113.932930,77.555832 
	C110.655563,87.044754 120.735504,85.819405 124.093468,90.394585 
	C121.679375,90.452560 119.765808,89.470512 117.743721,89.126640 
	C116.327225,88.885750 114.762558,89.516098 113.264069,89.757355 
	C113.784378,91.318062 113.845818,93.540916 114.927986,94.290878 
	C116.743858,95.549294 119.163254,96.202637 121.411591,96.516060 
	C126.137497,97.174858 129.926010,94.823898 130.687164,90.933144 
	C131.615250,86.189232 128.691330,83.944763 124.797615,82.449631 
	C123.154083,81.818535 121.521423,81.159126 119.883820,80.512589 
	C120.047173,80.045334 120.210533,79.578079 120.373894,79.110825 
	C122.216576,79.488869 124.054321,80.124825 125.903549,80.160179 
	C127.286484,80.186623 128.684219,79.438545 130.075363,79.035339 
	C129.448807,77.665878 129.194153,75.772713 128.131165,75.017860 
	C123.593163,71.795364 118.650673,72.592445 113.932930,77.555832 
M238.823837,73.520332 
	C235.342453,73.515732 231.831772,73.247276 228.393341,73.629280 
	C226.903595,73.794800 224.410904,75.223122 224.344040,76.211166 
	C223.953293,81.985275 224.003372,87.805763 224.281082,93.592529 
	C224.328247,94.575645 226.333435,96.336296 227.194183,96.201889 
	C228.443695,96.006790 229.905685,94.613853 230.484039,93.364639 
	C231.122620,91.985268 230.865784,90.191353 231.032639,88.170044 
	C233.056824,88.170044 234.940994,88.508186 236.623077,88.070213 
	C238.153000,87.671875 239.463318,86.430153 240.870438,85.560196 
	C239.540115,84.364929 238.388794,82.639061 236.832382,82.114037 
	C235.047089,81.511810 232.902618,81.974380 230.914185,81.974380 
	C230.900360,81.353951 230.886520,80.733521 230.872681,80.113091 
	C233.319336,79.990799 235.816284,80.121819 238.193558,79.649910 
	C239.589111,79.372879 240.794205,78.136520 242.084976,77.331665 
	C241.270889,76.132454 240.456802,74.933243 238.823837,73.520332 
M189.173233,88.347473 
	C189.816238,89.872177 190.201752,91.591896 191.169998,92.870262 
	C192.281189,94.337357 193.875900,96.335594 195.321899,96.387283 
	C196.641495,96.434448 198.559784,94.441460 199.311676,92.905746 
	C201.568970,88.295242 203.594818,83.539658 205.237442,78.680595 
	C205.692001,77.335899 204.495270,75.432976 204.056183,73.786171 
	C202.518326,74.665466 200.333405,75.174446 199.574921,76.499763 
	C197.904449,79.418617 196.953873,82.749474 195.408859,86.676338 
	C193.844269,82.853622 192.910950,79.618149 191.222290,76.842155 
	C190.351395,75.410507 188.137405,74.795876 186.530289,73.812080 
	C186.165222,75.666817 185.182800,77.664940 185.572830,79.344307 
	C186.238022,82.208458 187.764908,84.872482 189.173233,88.347473 
M248.488800,73.866455 
	C244.969406,75.216606 245.428314,77.256500 247.171097,79.911804 
	C249.545013,83.528709 253.538361,86.233864 253.160080,91.496193 
	C253.048691,93.045708 254.918961,94.737679 255.881042,96.364357 
	C257.004578,94.705009 258.332336,93.145073 259.200439,91.361412 
	C260.311920,89.077675 260.838989,86.501114 262.017212,84.260735 
	C263.088074,82.224396 264.998718,80.608620 265.945587,78.536240 
	C266.489380,77.346039 265.852600,75.616409 265.747253,74.129608 
	C264.141296,74.392128 262.072601,74.124863 261.031525,75.034142 
	C259.205078,76.629372 258.008240,78.945526 256.613007,80.869652 
	C254.089783,78.481407 251.616547,76.140450 248.488800,73.866455 
M213.130280,73.942307 
	C212.587189,80.046165 211.833405,86.144203 211.664673,92.258392 
	C211.627365,93.609970 213.660095,95.018684 214.739655,96.401085 
	C215.791443,95.003723 217.630249,93.670418 217.750168,92.197205 
	C218.138260,87.429527 217.901627,82.610451 217.892609,77.811211 
	C217.887573,75.128410 217.077637,73.211235 213.130280,73.942307 
z"/>
<path fill="#4D12C1" opacity="1.000000" stroke="none" 
	d="
M48.000111,59.968964 
	C52.316765,57.513706 56.406059,54.433491 61.007008,52.759720 
	C66.898689,50.616390 72.780296,51.619450 78.011978,55.607430 
	C80.237259,57.303707 82.874596,58.459408 85.578415,60.309395 
	C79.555130,70.079155 73.278114,79.400299 66.838440,88.787437 
	C66.675774,88.853432 66.402351,89.070602 66.262863,88.734818 
	C63.502949,84.553368 60.937752,80.668526 58.246063,76.873398 
	C55.715889,73.306015 52.339588,72.677719 48.668987,74.864479 
	C45.392479,76.816460 44.690639,80.843231 47.106983,84.493423 
	C51.220284,90.707085 55.587250,96.752815 59.982460,103.207336 
	C64.480110,109.776649 69.405022,109.582100 73.431572,102.845383 
	C80.787605,92.388672 87.869797,82.117004 95.120163,72.240753 
	C95.530937,74.397392 95.953377,76.155396 95.984940,77.920387 
	C96.119781,85.460770 96.139221,93.003220 96.200760,100.544914 
	C96.200760,100.544914 96.241852,100.812119 95.902687,101.074310 
	C95.431435,101.695992 95.299339,102.055473 95.167252,102.414963 
	C92.851921,104.437675 90.734161,106.766563 88.177963,108.415993 
	C83.601082,111.369316 78.991707,114.527779 73.953484,116.426537 
	C70.196014,117.842606 65.114555,118.909828 61.725189,117.493713 
	C54.172001,114.337921 47.249241,109.627472 40.215050,105.313354 
	C38.784210,104.435806 37.993233,102.514961 36.912888,100.242615 
	C36.934673,93.635162 37.068436,87.857185 36.922218,82.086296 
	C36.836815,78.715660 36.303997,75.356354 35.972469,71.991951 
	C36.020279,71.516190 36.068085,71.040428 36.454556,70.138077 
	C36.955727,69.496063 37.021843,69.254272 36.991573,68.986122 
	C36.991573,68.986122 37.001030,68.998390 37.221443,68.829216 
	C37.571911,68.317787 37.701969,67.975533 37.832031,67.633278 
	C38.883305,66.421608 39.934574,65.209930 41.572929,63.865852 
	C42.424911,63.450771 42.689804,63.168095 42.954697,62.885414 
	C43.366570,62.573563 43.778442,62.261711 44.718803,61.878830 
	C45.497581,61.563583 45.747875,61.319370 45.998169,61.075157 
	C45.998169,61.075157 46.244614,60.848888 46.701324,60.799576 
	C47.438725,60.489830 47.719418,60.229393 48.000111,59.968964 
z"/>
<path fill="#4BD604" opacity="1.000000" stroke="none" 
	d="
M94.951996,71.845337 
	C87.869797,82.117004 80.787605,92.388672 73.389572,102.445038 
	C71.049522,97.726974 69.025314,93.224205 67.001099,88.721443 
	C73.278114,79.400299 79.555130,70.079155 85.907028,60.428272 
	C87.108810,58.685024 88.136925,57.176769 89.382904,55.877445 
	C92.097847,53.046265 95.355438,52.902508 98.375549,55.048290 
	C101.302666,57.128002 101.890205,60.185051 100.148842,63.428501 
	C99.131653,65.323128 97.908401,67.107117 96.393341,69.428528 
	C95.656548,70.559235 95.304268,71.202286 94.951996,71.845337 
z"/>
<path fill="#541CC4" opacity="1.000000" stroke="none" 
	d="
M147.813202,96.436310 
	C146.202942,96.436272 145.041016,96.443352 143.879196,96.435471 
	C137.470886,96.392029 137.043396,95.974182 137.033096,89.712700 
	C137.026810,85.895103 137.183884,82.069611 136.985703,78.262337 
	C136.820724,75.092781 138.194321,73.449203 141.213287,73.544640 
	C145.087128,73.667099 148.963776,74.046913 152.805298,74.566704 
	C153.620056,74.676941 154.288422,75.869011 155.024246,76.562645 
	C154.349792,77.133049 153.761749,77.959023 152.983414,78.222244 
	C151.196701,78.826477 149.284378,79.054115 147.486267,79.631531 
	C146.155502,80.058868 144.924393,80.796501 143.648880,81.395889 
	C144.850220,81.901527 146.015549,82.549103 147.264740,82.866211 
	C148.200714,83.103806 149.305725,82.704430 150.225479,82.969826 
	C151.436279,83.319206 152.539246,84.042244 153.688583,84.604614 
	C152.512985,85.738190 151.513596,87.434685 150.119736,87.870979 
	C148.121109,88.496567 145.834656,88.202637 143.671097,88.301285 
	C143.659775,88.791199 143.648438,89.281113 143.637100,89.771027 
	C145.598816,89.926704 147.681244,89.724030 149.490082,90.333450 
	C151.515182,91.015739 153.292480,92.433586 155.177612,93.531357 
	C153.370224,94.499512 151.580826,95.504318 149.741318,96.407036 
	C149.339905,96.604012 148.759537,96.436287 147.813202,96.436310 
z"/>
<path fill="#4E12C2" opacity="1.000000" stroke="none" 
	d="
M170.163834,90.357849 
	C168.972763,90.945274 168.053497,91.772293 167.179779,92.644905 
	C165.950958,93.872154 164.755920,95.133240 163.546448,96.379860 
	C162.668503,94.846970 161.157684,93.363457 161.033493,91.771744 
	C160.686462,87.324738 160.839798,82.830910 160.963760,78.360222 
	C160.995987,77.197578 161.297043,75.671349 162.070770,74.966644 
	C164.920731,72.370872 175.171036,73.066284 177.977417,75.829491 
	C181.108444,78.912338 180.800735,83.311989 177.103363,88.258118 
	C177.212769,88.551643 177.282593,88.871788 177.448517,89.130264 
	C178.778183,91.201744 182.011612,93.291557 178.691864,95.753922 
	C175.694946,97.976799 174.018936,94.875992 172.300476,92.957817 
	C171.639069,92.219536 171.068130,91.400200 170.163834,90.357849 
M168.110001,79.772179 
	C166.860443,81.568054 165.951065,83.584129 169.193909,83.765938 
	C170.738022,83.852509 172.363571,82.485947 173.952240,81.777641 
	C172.579620,81.047211 171.217789,80.294937 169.824600,79.606125 
	C169.568085,79.479301 169.184448,79.609596 168.110001,79.772179 
z"/>
<path fill="#4F16C2" opacity="1.000000" stroke="none" 
	d="
M114.090569,77.210022 
	C118.650673,72.592445 123.593163,71.795364 128.131165,75.017860 
	C129.194153,75.772713 129.448807,77.665878 130.075363,79.035339 
	C128.684219,79.438545 127.286484,80.186623 125.903549,80.160179 
	C124.054321,80.124825 122.216576,79.488869 120.373894,79.110825 
	C120.210533,79.578079 120.047173,80.045334 119.883820,80.512589 
	C121.521423,81.159126 123.154083,81.818535 124.797615,82.449631 
	C128.691330,83.944763 131.615250,86.189232 130.687164,90.933144 
	C129.926010,94.823898 126.137497,97.174858 121.411591,96.516060 
	C119.163254,96.202637 116.743858,95.549294 114.927986,94.290878 
	C113.845818,93.540916 113.784378,91.318062 113.264069,89.757355 
	C114.762558,89.516098 116.327225,88.885750 117.743721,89.126640 
	C119.765808,89.470512 121.679375,90.452560 124.093468,90.394585 
	C120.735504,85.819405 110.655563,87.044754 114.090569,77.210022 
z"/>
<path fill="#5319C3" opacity="1.000000" stroke="none" 
	d="
M239.233276,73.627182 
	C240.456802,74.933243 241.270889,76.132454 242.084976,77.331665 
	C240.794205,78.136520 239.589111,79.372879 238.193558,79.649910 
	C235.816284,80.121819 233.319336,79.990799 230.872681,80.113091 
	C230.886520,80.733521 230.900360,81.353951 230.914185,81.974380 
	C232.902618,81.974380 235.047089,81.511810 236.832382,82.114037 
	C238.388794,82.639061 239.540115,84.364929 240.870438,85.560196 
	C239.463318,86.430153 238.153000,87.671875 236.623077,88.070213 
	C234.940994,88.508186 233.056824,88.170044 231.032639,88.170044 
	C230.865784,90.191353 231.122620,91.985268 230.484039,93.364639 
	C229.905685,94.613853 228.443695,96.006790 227.194183,96.201889 
	C226.333435,96.336296 224.328247,94.575645 224.281082,93.592529 
	C224.003372,87.805763 223.953293,81.985275 224.344040,76.211166 
	C224.410904,75.223122 226.903595,73.794800 228.393341,73.629280 
	C231.831772,73.247276 235.342453,73.515732 239.233276,73.627182 
z"/>
<path fill="#4D12C2" opacity="1.000000" stroke="none" 
	d="
M189.051529,87.984024 
	C187.764908,84.872482 186.238022,82.208458 185.572830,79.344307 
	C185.182800,77.664940 186.165222,75.666817 186.530289,73.812080 
	C188.137405,74.795876 190.351395,75.410507 191.222290,76.842155 
	C192.910950,79.618149 193.844269,82.853622 195.408859,86.676338 
	C196.953873,82.749474 197.904449,79.418617 199.574921,76.499763 
	C200.333405,75.174446 202.518326,74.665466 204.056183,73.786171 
	C204.495270,75.432976 205.692001,77.335899 205.237442,78.680595 
	C203.594818,83.539658 201.568970,88.295242 199.311676,92.905746 
	C198.559784,94.441460 196.641495,96.434448 195.321899,96.387283 
	C193.875900,96.335594 192.281189,94.337357 191.169998,92.870262 
	C190.201752,91.591896 189.816238,89.872177 189.051529,87.984024 
z"/>
<path fill="#4E14C2" opacity="1.000000" stroke="none" 
	d="
M248.816040,73.832977 
	C251.616547,76.140450 254.089783,78.481407 256.613007,80.869652 
	C258.008240,78.945526 259.205078,76.629372 261.031525,75.034142 
	C262.072601,74.124863 264.141296,74.392128 265.747253,74.129608 
	C265.852600,75.616409 266.489380,77.346039 265.945587,78.536240 
	C264.998718,80.608620 263.088074,82.224396 262.017212,84.260735 
	C260.838989,86.501114 260.311920,89.077675 259.200439,91.361412 
	C258.332336,93.145073 257.004578,94.705009 255.881042,96.364365 
	C254.918961,94.737679 253.048691,93.045708 253.160080,91.496193 
	C253.538361,86.233864 249.545013,83.528709 247.171097,79.911804 
	C245.428314,77.256500 244.969406,75.216606 248.816040,73.832977 
z"/>
<path fill="#5117C3" opacity="1.000000" stroke="none" 
	d="
M213.486755,73.815186 
	C217.077637,73.211235 217.887573,75.128410 217.892609,77.811211 
	C217.901627,82.610451 218.138260,87.429527 217.750168,92.197205 
	C217.630249,93.670418 215.791443,95.003723 214.739655,96.401085 
	C213.660095,95.018684 211.627365,93.609970 211.664673,92.258392 
	C211.833405,86.144203 212.587189,80.046165 213.486755,73.815186 
z"/>
<path fill="#5820C5" opacity="1.000000" stroke="none" 
	d="
M95.120163,72.240753 
	C95.304268,71.202286 95.656548,70.559235 96.151505,69.754227 
	C96.836639,73.290634 97.828606,76.989784 97.822029,80.687164 
	C97.810585,87.117058 97.182632,93.545868 96.506958,100.260025 
	C96.139221,93.003220 96.119781,85.460770 95.984940,77.920387 
	C95.953377,76.155396 95.530937,74.397392 95.120163,72.240753 
z"/>
<path fill="#5D27C7" opacity="1.000000" stroke="none" 
	d="
M35.779243,72.356941 
	C36.303997,75.356354 36.836815,78.715660 36.922218,82.086296 
	C37.068436,87.857185 36.934673,93.635162 36.872734,99.906105 
	C36.256046,96.254189 35.358288,92.118927 35.197910,87.955254 
	C35.002800,82.889977 35.428734,77.800781 35.779243,72.356941 
z"/>
<path fill="#5D27C7" opacity="1.000000" stroke="none" 
	d="
M47.701035,59.987896 
	C47.719418,60.229393 47.438725,60.489830 46.868031,60.785751 
	C46.852673,60.549770 47.127316,60.278301 47.701035,59.987896 
z"/>
<path fill="#5D27C7" opacity="1.000000" stroke="none" 
	d="
M42.659798,62.931107 
	C42.689804,63.168095 42.424911,63.450771 41.866337,63.778084 
	C41.836739,63.540749 42.100819,63.258770 42.659798,62.931107 
z"/>
<path fill="#5820C5" opacity="1.000000" stroke="none" 
	d="
M95.429153,102.264091 
	C95.299339,102.055473 95.431435,101.695992 95.803406,101.166046 
	C95.925880,101.368134 95.808472,101.740677 95.429153,102.264091 
z"/>
<path fill="#5D27C7" opacity="1.000000" stroke="none" 
	d="
M45.726288,61.093353 
	C45.747875,61.319370 45.497581,61.563583 44.982147,61.843239 
	C44.962803,61.622967 45.208603,61.367256 45.726288,61.093353 
z"/>
<path fill="#5D27C7" opacity="1.000000" stroke="none" 
	d="
M36.841320,69.108864 
	C37.021843,69.254272 36.955727,69.496063 36.643150,69.830147 
	C36.422447,69.672043 36.488441,69.432976 36.841320,69.108864 
z"/>
<path fill="#5D27C7" opacity="1.000000" stroke="none" 
	d="
M37.575085,67.772675 
	C37.701969,67.975533 37.571911,68.317787 37.215408,68.827530 
	C37.098690,68.634033 37.208416,68.273056 37.575085,67.772675 
z"/>
<path fill="#FCFBFD" opacity="1.000000" stroke="none" 
	d="
M59.847633,102.869110 
	C55.587250,96.752815 51.220284,90.707085 47.106983,84.493423 
	C44.690639,80.843231 45.392479,76.816460 48.668987,74.864479 
	C52.339588,72.677719 55.715889,73.306015 58.246063,76.873398 
	C60.937752,80.668526 63.502949,84.553368 66.113037,89.056969 
	C64.017670,94.099632 61.932652,98.484375 59.847633,102.869110 
z"/>
<path fill="#8DFA47" opacity="1.000000" stroke="none" 
	d="
M59.982460,103.207336 
	C61.932652,98.484375 64.017670,94.099632 66.252518,89.392746 
	C66.402351,89.070602 66.675774,88.853432 66.838440,88.787437 
	C69.025314,93.224205 71.049522,97.726974 73.115738,102.630081 
	C69.405022,109.582100 64.480110,109.776649 59.982460,103.207336 
z"/>
<path fill="#EAE5F7" opacity="1.000000" stroke="none" 
	d="
M168.484741,79.696701 
	C169.184448,79.609596 169.568085,79.479301 169.824600,79.606125 
	C171.217789,80.294937 172.579620,81.047211 173.952240,81.777634 
	C172.363571,82.485947 170.738022,83.852509 169.193909,83.765938 
	C165.951065,83.584129 166.860443,81.568054 168.484741,79.696701 
z"/>
</svg>