<svg version="1.1" id="Layer_1" xmlns="http://www.w3.org/2000/svg" xmlns:xlink="http://www.w3.org/1999/xlink" x="0px" y="0px"
	 width="100%" viewBox="0 0 3229 1042" enable-background="new 0 0 3229 1042" xml:space="preserve">
<path fill="#FEFDFD" opacity="1.000000" stroke="none" 
	d="
M2138.000000,1043.000000 
	C1425.333374,1043.000000 713.166687,1043.000000 1.000000,1043.000000 
	C1.000000,695.666687 1.000000,348.333344 1.000000,1.000000 
	C1077.333374,1.000000 2153.666748,1.000000 3230.000000,1.000000 
	C3230.000000,348.333344 3230.000000,695.666687 3230.000000,1043.000000 
	C2866.166748,1043.000000 2502.333252,1043.000000 2138.000000,1043.000000 
M698.043823,681.027954 
	C697.699280,681.481995 697.054871,681.935120 697.053467,682.390137 
	C696.999390,699.930725 696.983643,717.471619 697.082458,735.011719 
	C697.086060,735.655579 698.286011,736.292786 699.622681,737.040955 
	C700.090454,737.030823 700.558228,737.020691 701.038025,737.901062 
	C701.038025,740.608459 701.038025,743.315857 701.038025,746.648804 
	C698.609863,744.384644 697.061401,742.676575 695.259277,741.300842 
	C675.568848,726.270203 643.710876,730.131165 624.965942,748.451538 
	C599.763855,773.082886 599.057251,825.633545 620.037903,851.762939 
	C637.927551,874.042786 670.031433,879.290588 692.814514,863.053223 
	C697.423401,859.768433 701.544556,855.799438 705.304260,852.638794 
	C705.755493,857.147583 706.360718,863.195251 706.959656,869.180298 
	C719.583069,869.180298 731.643127,869.180298 743.133423,869.180298 
	C743.133423,804.087463 743.133423,739.361145 743.133423,674.603943 
	C728.666626,674.603943 714.973145,674.603943 701.042297,674.603943 
	C701.042297,677.004517 701.042297,678.994446 700.329590,681.004456 
	C699.858093,681.030151 699.386536,681.055847 698.043823,681.027954 
M1372.612671,300.939514 
	C1372.317871,300.613831 1372.023071,300.288177 1372.002075,299.069855 
	C1372.002075,257.661285 1372.002075,216.252716 1372.002075,174.794373 
	C1338.791138,174.794373 1306.418091,174.794373 1273.892822,174.794373 
	C1273.892822,290.648315 1273.892822,406.078674 1273.892822,521.934326 
	C1306.545288,521.934326 1339.072510,521.934326 1372.100830,521.934326 
	C1372.100830,477.438477 1372.100830,433.191559 1372.100830,388.282135 
	C1375.213501,388.282135 1377.835083,388.281616 1380.456665,388.282227 
	C1413.615845,388.289642 1446.775635,388.386749 1479.933716,388.202271 
	C1484.575562,388.176453 1485.819214,389.532471 1485.799927,394.104156 
	C1485.632324,433.927887 1485.700562,473.752594 1485.698730,513.577026 
	C1485.698608,516.349915 1485.698730,519.122742 1485.698730,522.309387 
	C1488.112305,522.309387 1489.746948,522.309326 1491.381714,522.309387 
	C1520.375000,522.310852 1549.369385,522.184265 1578.360474,522.441406 
	C1583.118164,522.483582 1584.161377,521.153625 1584.156250,516.613708 
	C1584.029663,404.304657 1584.048218,291.995392 1584.041016,179.686188 
	C1584.040894,178.086670 1584.041138,176.487152 1584.041138,174.744781 
	C1551.015381,174.744781 1518.624268,174.744781 1485.718384,174.744781 
	C1485.718384,176.674606 1485.718628,178.298904 1485.718384,179.923187 
	C1485.711670,218.581116 1485.650757,257.239227 1485.777954,295.896698 
	C1485.791382,299.983826 1484.716553,301.270782 1480.473999,301.242096 
	C1452.814575,301.055206 1425.153198,301.133087 1397.492554,301.172760 
	C1389.338623,301.184448 1381.184814,301.352570 1372.612671,300.939514 
M2132.410400,205.128555 
	C2123.517578,194.213943 2111.977539,187.273682 2098.806885,182.810608 
	C2078.816162,176.036362 2058.061523,174.694077 2037.209961,174.642181 
	C1978.721191,174.496643 1920.231689,174.577286 1861.742554,174.585007 
	C1859.981323,174.585251 1858.219971,174.766235 1856.439819,174.863998 
	C1856.439819,290.894775 1856.439819,406.413025 1856.439819,522.220032 
	C1858.202271,522.220032 1859.525024,522.220093 1860.847778,522.220032 
	C1920.170166,522.218262 1979.492432,522.234558 2038.814819,522.204163 
	C2057.678711,522.194458 2076.389404,520.890869 2094.703613,515.825012 
	C2122.117920,508.241974 2142.217041,492.449951 2151.215088,464.777771 
	C2157.294189,446.082611 2157.049805,426.747223 2155.040039,407.394745 
	C2151.943115,377.581055 2137.060059,356.545197 2108.882812,345.449554 
	C2104.587646,343.758270 2100.167236,342.384613 2094.541016,340.423431 
	C2098.796631,339.016632 2101.650146,338.140228 2104.457520,337.134399 
	C2123.043457,330.475464 2137.195068,318.959991 2144.293945,300.039673 
	C2149.113770,287.193512 2149.747314,273.723846 2149.332520,260.185638 
	C2148.731201,240.557510 2145.215576,221.781296 2132.410400,205.128555 
M519.512817,369.393250 
	C519.998230,382.870331 520.322021,396.355652 521.007690,409.822540 
	C521.984924,429.014160 524.771851,447.891632 531.915833,465.900543 
	C538.523254,482.556793 548.902405,496.191376 564.025024,506.047852 
	C583.552063,518.774963 605.604309,524.100037 628.274902,525.570618 
	C656.145569,527.378601 684.146118,527.810242 712.086609,527.713745 
	C733.218628,527.640686 754.216614,525.038879 774.696045,519.172668 
	C806.750366,509.990936 828.740906,490.505096 838.913452,458.192596 
	C845.124451,438.463715 847.179688,418.154572 847.689575,397.733765 
	C848.400391,369.271606 848.382751,340.781097 848.115173,312.308014 
	C847.918030,291.333527 846.805359,270.370422 842.051025,249.799255 
	C835.619934,221.973160 822.117615,199.179214 795.809875,185.812149 
	C775.909058,175.700500 754.317566,171.338364 732.334839,170.300339 
	C705.253479,169.021622 678.086914,168.760544 650.974609,169.182358 
	C630.521301,169.500580 610.167847,172.186646 590.515747,178.388092 
	C566.989563,185.812088 547.771973,198.842865 536.226257,221.424271 
	C528.955200,235.645081 524.786743,250.831329 522.911621,266.625519 
	C518.895569,300.452728 519.113281,334.436920 519.512817,369.393250 
M1014.969055,445.680847 
	C999.253784,437.840668 1000.207275,422.730499 999.030334,408.333313 
	C967.769653,408.333313 936.724365,408.333313 905.378296,408.333313 
	C906.026794,427.464050 905.471436,446.274963 909.667236,464.788605 
	C915.061890,488.592102 928.953308,505.247437 951.328186,514.768860 
	C970.770264,523.042358 991.575012,524.923523 1012.265991,526.677795 
	C1039.838013,529.015564 1067.497192,529.138000 1095.098999,526.960999 
	C1117.485718,525.195312 1139.873779,523.292358 1160.551514,513.095337 
	C1180.133911,503.438507 1195.580322,489.771667 1201.898682,468.344604 
	C1205.253784,456.966644 1207.352417,445.004364 1208.279541,433.169678 
	C1210.080200,410.185791 1209.699219,387.133789 1201.090454,365.234009 
	C1192.511963,343.411560 1176.635742,328.654236 1154.614136,320.979187 
	C1132.248657,313.184235 1108.720581,311.721985 1085.350342,309.807220 
	C1067.441772,308.339935 1049.472412,307.584351 1031.580688,305.955902 
	C1020.825012,304.976898 1010.299438,301.864716 1006.103394,290.550934 
	C998.748352,270.719879 1002.206177,248.557816 1029.770752,245.169617 
	C1043.725952,243.454254 1058.003052,243.860260 1072.115845,244.166626 
	C1077.775635,244.289474 1083.582520,246.192627 1088.979004,248.205948 
	C1102.651611,253.307022 1106.116699,264.848785 1106.183228,277.903717 
	C1106.206177,282.409393 1107.440796,283.909607 1112.072021,283.868896 
	C1137.732666,283.643402 1163.395996,283.714874 1189.058350,283.685944 
	C1192.504517,283.682068 1195.950562,283.685425 1199.482788,283.685425 
	C1199.696777,282.620819 1199.970825,281.982239 1199.927856,281.365845 
	C1198.815674,265.461029 1198.540283,249.433151 1196.272339,233.692825 
	C1194.237915,219.572708 1187.958618,206.831467 1177.989136,196.151306 
	C1163.743164,180.889877 1145.264404,175.373108 1125.437744,172.657578 
	C1097.642334,168.850571 1069.712036,167.683136 1041.704224,168.482147 
	C1018.228638,169.151871 994.583435,169.770142 971.888855,176.243088 
	C942.832397,184.530502 921.411560,202.078262 912.626587,232.081467 
	C904.222839,260.782562 904.042847,289.906036 910.643188,318.986816 
	C913.536072,331.732941 918.866150,343.491974 928.266052,352.991180 
	C942.383301,367.257568 959.945251,375.215027 979.353943,377.950470 
	C1002.550659,381.219757 1025.996704,382.715820 1049.332153,385.006744 
	C1062.062134,386.256531 1074.978027,386.597717 1087.466797,389.078125 
	C1104.269653,392.415314 1110.600098,402.563965 1110.183594,421.876892 
	C1109.868774,436.475891 1101.544189,447.042297 1086.049805,449.004486 
	C1070.950684,450.916626 1055.552124,451.272766 1040.313721,450.952026 
	C1032.054688,450.778198 1023.855408,447.767578 1014.969055,445.680847 
M2189.590088,494.053436 
	C2186.855957,503.208130 2184.121826,512.362793 2181.373047,521.565857 
	C2182.633301,521.928040 2183.105957,522.182495 2183.578857,522.182861 
	C2215.732666,522.206177 2247.886475,522.174500 2280.040039,522.268616 
	C2283.164062,522.277771 2283.851807,520.607666 2284.553955,518.133911 
	C2289.860840,499.433868 2295.285889,480.767426 2300.655273,462.085083 
	C2301.363770,459.620697 2301.884033,457.692719 2305.446045,457.709473 
	C2341.264648,457.878052 2377.084473,457.787903 2412.903320,457.931274 
	C2414.196045,457.936432 2416.300537,459.359406 2416.648926,460.531403 
	C2422.241455,479.334351 2427.753174,498.164825 2432.912842,517.090088 
	C2433.999023,521.073486 2435.568359,522.347900 2439.675781,522.324097 
	C2470.329590,522.146362 2500.984619,522.223816 2531.639404,522.197937 
	C2533.216553,522.196594 2534.793701,521.982422 2536.579346,521.852112 
	C2536.047119,519.837402 2535.673584,518.218933 2535.192383,516.632996 
	C2528.058594,493.109497 2520.896240,469.594666 2513.768555,446.069275 
	C2497.292480,391.687561 2480.813477,337.306732 2464.371338,282.914764 
	C2453.842773,248.085938 2443.351562,213.245590 2432.931641,178.384155 
	C2432.097900,175.595062 2430.879883,174.398132 2427.796631,174.405472 
	C2381.980713,174.514572 2336.164795,174.534271 2290.348633,174.460846 
	C2287.282227,174.455933 2285.903564,175.534470 2285.065430,178.383209 
	C2280.235840,194.797241 2275.301025,211.180618 2270.343506,227.556778 
	C2256.000000,274.942505 2241.625000,322.318756 2227.268799,369.700714 
	C2214.787598,410.895752 2202.314453,452.093292 2189.590088,494.053436 
M237.499863,261.430817 
	C249.662415,261.437897 261.826813,261.565186 273.986359,261.377472 
	C277.551453,261.322449 278.859406,262.588562 278.564697,265.985413 
	C278.449921,267.308289 278.546265,268.649475 278.546295,269.982330 
	C278.548767,351.954498 278.549133,433.926636 278.557678,515.898804 
	C278.558319,522.249695 278.584808,522.237671 285.122620,522.235413 
	C315.445526,522.224915 345.769379,522.103699 376.090454,522.335388 
	C380.976593,522.372681 382.553345,521.517578 382.540985,516.177979 
	C382.349457,433.539886 382.414520,350.901184 382.426117,268.262634 
	C382.427063,261.440674 382.447083,261.432281 389.201813,261.432495 
	C419.691467,261.433472 450.181793,261.339355 480.670013,261.549469 
	C485.362488,261.581818 486.574463,260.081055 486.543976,255.605728 
	C486.371399,230.282166 486.463623,204.956818 486.448669,179.632080 
	C486.447815,178.173096 486.298004,176.714218 486.179962,174.574768 
	C482.462555,174.574768 479.021454,174.574768 475.580322,174.574768 
	C377.113739,174.574844 278.647125,174.600800 180.180679,174.487244 
	C175.920853,174.482330 174.424850,175.408325 174.463104,179.965225 
	C174.677078,205.454727 174.633621,230.947464 174.480347,256.437897 
	C174.456970,260.322784 175.467789,261.574493 179.520309,261.527954 
	C198.511353,261.309692 217.506302,261.431030 237.499863,261.430817 
M1729.500122,174.570984 
	C1709.890259,174.570984 1690.280273,174.570984 1670.341309,174.570984 
	C1670.341309,290.645874 1670.341309,406.177094 1670.341309,521.975708 
	C1703.218750,521.975708 1735.781372,521.975708 1768.618286,521.975708 
	C1768.618286,406.137207 1768.618286,290.601440 1768.618286,174.570801 
	C1755.775757,174.570801 1743.138062,174.570801 1729.500122,174.570984 
M1009.107361,830.326660 
	C1010.027954,832.467407 1010.895935,834.632690 1011.877197,836.745239 
	C1023.854248,862.530701 1053.029419,875.002380 1079.414429,864.865051 
	C1086.215820,862.251892 1092.029907,857.068665 1098.137329,853.168396 
	C1098.137329,856.216125 1098.337891,860.022339 1098.103149,863.801514 
	C1097.008667,881.419800 1086.111084,892.791443 1068.679443,894.474731 
	C1057.560669,895.548401 1046.800903,893.662720 1036.357666,889.893677 
	C1032.391846,888.462402 1028.532593,886.736084 1024.351318,885.032959 
	C1021.969055,894.076660 1020.043396,902.664551 1017.377136,911.015869 
	C1015.847229,915.807678 1017.257324,917.795959 1021.674133,919.390442 
	C1043.969727,927.438904 1066.678223,928.952637 1089.825073,924.131470 
	C1105.685791,920.827881 1119.168823,913.604675 1128.211548,899.648682 
	C1135.456055,888.468140 1138.851440,875.831726 1138.975342,862.778870 
	C1139.378052,820.367249 1139.125977,777.949463 1139.125977,735.303101 
	C1128.323853,735.303101 1116.431152,735.303101 1104.324219,735.303101 
	C1103.797974,740.358826 1103.297729,745.165039 1102.740112,750.523071 
	C1099.979736,747.457031 1097.986084,744.828796 1095.569824,742.674744 
	C1093.130737,740.500366 1090.461304,738.427185 1087.567139,736.945496 
	C1068.061768,726.959229 1040.710449,731.961975 1024.817139,749.054382 
	C1003.044189,772.470032 1000.807434,800.073669 1009.107361,830.326660 
M978.978699,789.518982 
	C978.805969,785.859314 978.842896,782.175476 978.422729,778.544373 
	C976.917969,765.539368 972.951050,753.560730 963.392090,744.042114 
	C946.898132,727.617676 913.925781,727.903198 896.214355,745.324890 
	C893.802002,747.697693 891.710999,750.397339 888.815735,753.691406 
	C888.071655,746.968262 887.437134,741.235352 886.777161,735.272461 
	C874.663330,735.272461 862.767395,735.272461 851.489746,735.272461 
	C851.489746,780.072754 851.489746,824.602966 851.489746,869.127319 
	C865.945129,869.127319 879.518982,869.127319 893.500000,869.127319 
	C893.500000,866.617310 893.497986,864.477173 893.500305,862.337036 
	C893.526306,837.839905 893.534119,813.342773 893.587891,788.845703 
	C893.613037,777.417236 902.800720,767.139465 913.956421,765.950134 
	C925.276672,764.743225 933.651123,771.570068 936.019470,784.156311 
	C936.630127,787.401367 936.946289,790.749878 936.956299,794.052246 
	C937.031921,819.031494 936.997620,844.011169 936.997620,869.204407 
	C951.055969,869.204407 964.810791,869.204407 978.978638,869.204407 
	C978.978638,842.777710 978.978638,816.645508 978.978699,789.518982 
M2378.767822,764.747498 
	C2375.082520,759.886292 2371.941895,754.463623 2367.612793,750.266296 
	C2353.026367,736.123596 2334.991211,731.514893 2315.084961,732.059021 
	C2279.687256,733.026611 2254.179199,754.028687 2248.356934,788.064209 
	C2244.820312,808.737366 2247.186768,828.698303 2259.981201,846.025269 
	C2273.870850,864.835571 2293.646240,872.306458 2316.396484,872.450317 
	C2335.329590,872.570068 2352.537354,867.158386 2366.721924,854.122925 
	C2392.123047,830.779602 2392.020020,788.202698 2378.767822,764.747498 
M1746.605957,753.850037 
	C1731.709717,737.828064 1713.036743,731.633362 1691.524658,732.045105 
	C1656.651489,732.712646 1628.499390,753.299683 1623.365601,789.763062 
	C1620.122681,812.797058 1623.720337,834.385559 1640.314209,852.005920 
	C1664.516968,877.705566 1711.753784,879.555359 1739.688354,856.228821 
	C1767.377075,833.107544 1770.876343,784.048767 1746.605957,753.850037 
M1511.252686,789.949280 
	C1512.751831,785.125183 1513.362915,779.748840 1515.944214,775.597717 
	C1520.605469,768.101562 1528.124512,764.925598 1537.004639,766.138245 
	C1546.002319,767.366882 1551.211426,773.057861 1553.036499,781.633118 
	C1554.099854,786.629700 1554.640259,791.824890 1554.681030,796.936646 
	C1554.854980,818.756104 1554.755249,840.577698 1554.755371,862.398560 
	C1554.755493,864.642761 1554.755371,866.887024 1554.755371,869.189941 
	C1569.165283,869.189941 1582.736572,869.189941 1596.765625,869.189941 
	C1596.765625,867.054321 1596.765747,865.256653 1596.765747,863.459045 
	C1596.765381,839.472778 1596.901245,815.485291 1596.677856,791.501099 
	C1596.614746,784.717163 1595.985962,777.856201 1594.789551,771.178772 
	C1588.776611,737.620789 1553.496704,721.118530 1523.953613,738.240173 
	C1517.558594,741.946350 1512.222778,747.480530 1506.310913,752.243835 
	C1505.772461,746.932617 1505.183960,741.126465 1504.600708,735.371704 
	C1492.275024,735.371704 1480.219971,735.371704 1468.959961,735.371704 
	C1468.959961,780.127502 1468.959961,824.518311 1468.959961,869.160645 
	C1483.528931,869.160645 1497.231323,869.160645 1511.249756,869.160645 
	C1511.249756,842.804932 1511.249756,816.838684 1511.252686,789.949280 
M1405.532104,869.505859 
	C1415.486572,869.505859 1425.441040,869.505859 1435.560669,869.505859 
	C1435.750854,868.269653 1435.978516,867.481506 1435.978271,866.693481 
	C1435.966675,840.196045 1436.026489,813.697937 1435.861206,787.201355 
	C1435.785645,775.083130 1433.237549,763.529907 1427.118042,752.849548 
	C1412.259399,726.916138 1371.494873,725.285828 1351.420532,747.039917 
	C1349.619873,748.991150 1347.923462,751.038635 1345.649292,753.649231 
	C1344.880005,746.787415 1344.239136,741.070312 1343.603638,735.401489 
	C1331.330811,735.401489 1319.456421,735.401489 1308.171387,735.401489 
	C1308.171387,780.196045 1308.171387,824.590637 1308.171387,869.227661 
	C1322.526489,869.227661 1336.112793,869.227661 1350.214600,869.227661 
	C1350.214600,866.982849 1350.212769,865.016663 1350.214844,863.050537 
	C1350.241333,838.719238 1350.308105,814.387817 1350.273438,790.056641 
	C1350.261597,781.769958 1353.747803,775.322388 1360.076782,770.249756 
	C1367.794556,764.063782 1382.044312,763.839294 1388.813599,773.816650 
	C1393.069214,780.089050 1393.923096,787.139893 1393.972656,794.306152 
	C1394.128540,816.803528 1394.030396,839.302612 1394.030518,861.801086 
	C1394.030518,864.242065 1394.030396,866.683105 1394.030396,869.505798 
	C1397.948608,869.505798 1401.247192,869.505798 1405.532104,869.505859 
M2536.845947,797.502930 
	C2536.532715,790.525635 2536.614014,783.503174 2535.820312,776.580933 
	C2534.368408,763.919495 2530.171631,752.069702 2520.437500,743.480286 
	C2501.254883,726.553284 2470.648926,728.290833 2452.677002,746.735596 
	C2450.803223,748.658875 2449.002930,750.653748 2446.545654,753.281128 
	C2445.786377,746.709290 2445.130615,741.032959 2444.476807,735.375366 
	C2432.192627,735.375366 2420.301025,735.375366 2408.801025,735.375366 
	C2408.801025,780.134460 2408.801025,824.542847 2408.801025,869.258911 
	C2423.227295,869.258911 2436.979736,869.258911 2451.001221,869.258911 
	C2451.093018,867.665466 2451.232422,866.365845 2451.233887,865.066101 
	C2451.258545,840.077393 2451.154541,815.087524 2451.397705,790.101074 
	C2451.435303,786.262756 2452.498291,782.192444 2454.060059,778.659363 
	C2457.788818,770.222961 2466.386963,765.412781 2475.349365,766.036743 
	C2484.507812,766.674255 2490.002197,770.999451 2492.917725,780.940369 
	C2494.205566,785.331726 2494.670898,790.098328 2494.705078,794.700623 
	C2494.876953,817.856018 2494.783203,841.013428 2494.782715,864.170105 
	C2494.782715,865.782898 2494.782959,867.395630 2494.782959,869.227722 
	C2509.129395,869.227722 2522.874268,869.227722 2536.845703,869.227722 
	C2536.845703,845.442627 2536.845703,821.972290 2536.845947,797.502930 
M2977.276611,788.773438 
	C2949.291260,815.343384 2921.305664,841.913391 2892.964844,868.820862 
	C2894.109375,869.177185 2894.702637,869.523010 2895.295898,869.523193 
	C2915.288086,869.528625 2935.281250,869.570679 2955.271484,869.365234 
	C2957.161621,869.345886 2959.425537,868.157410 2960.858398,866.811707 
	C2981.421875,847.497864 3001.879639,828.071167 3022.347412,808.655273 
	C3033.628174,797.954285 3044.880371,787.223022 3056.125732,776.524048 
	C3055.642822,775.773987 3055.446289,775.282593 3055.096924,774.952759 
	C3023.410156,745.022217 2991.733398,715.080994 2959.938477,685.265808 
	C2958.588623,683.999939 2956.139160,683.371338 2954.195312,683.356934 
	C2935.203613,683.215576 2916.210205,683.264832 2897.217285,683.273865 
	C2896.034424,683.274414 2894.851562,683.392273 2892.631592,683.511047 
	C2925.824951,714.844666 2958.219971,745.424622 2990.812256,776.190857 
	C2986.258545,780.438171 2982.035889,784.376526 2977.276611,788.773438 
M2767.011963,869.467957 
	C2784.657227,869.398132 2802.303955,869.408386 2819.946533,869.158569 
	C2822.190186,869.126831 2824.991211,868.352173 2826.561035,866.882324 
	C2851.515869,843.515015 2876.312500,819.978638 2901.143555,796.479065 
	C2908.213135,789.788818 2915.277344,783.092957 2922.748779,776.016357 
	C2918.284424,771.966064 2914.307617,768.477478 2910.461670,764.849731 
	C2882.576904,738.548096 2854.746094,712.188843 2826.780029,685.973816 
	C2825.183594,684.477234 2822.559570,683.325806 2820.398438,683.300171 
	C2801.580566,683.076721 2782.759521,683.139221 2763.939209,683.148376 
	C2762.711182,683.148987 2761.482910,683.409607 2759.028809,683.688660 
	C2792.101074,714.907532 2824.362061,745.360901 2857.028076,776.196411 
	C2840.218750,792.098572 2824.055420,807.382080 2807.900635,822.674805 
	C2791.805908,837.911011 2775.719482,853.156311 2759.629395,868.397644 
	C2759.800293,868.797241 2759.970947,869.196838 2760.141846,869.596436 
	C2762.172607,869.507019 2764.203369,869.417603 2767.011963,869.467957 
M526.349365,732.149902 
	C523.683716,732.134277 521.017944,732.095764 518.352417,732.106750 
	C502.681335,732.171570 487.647339,735.320923 473.312012,741.637939 
	C471.261108,742.541748 468.139709,742.952454 469.239014,746.668945 
	C471.580444,754.585144 473.853821,762.521423 476.249481,770.774536 
	C478.129852,769.897461 479.575806,769.189575 481.048065,768.541382 
	C494.684265,762.538513 508.752838,759.046021 523.688538,762.205750 
	C530.377502,763.620789 535.437744,767.166748 537.284790,774.456055 
	C538.407227,778.885620 537.125244,779.807007 532.809998,779.904114 
	C515.213379,780.299622 498.035034,782.764587 482.224945,791.337891 
	C455.995270,805.561584 450.498383,841.364258 472.183167,861.256470 
	C487.124908,874.963074 505.079987,875.241760 523.122070,868.521240 
	C529.679871,866.078552 535.322571,861.179138 541.651489,857.233154 
	C542.418274,860.947571 543.272644,865.086426 544.119080,869.186829 
	C556.722168,869.186829 568.958130,869.186829 580.428772,869.186829 
	C580.186890,848.764282 579.983704,828.658508 579.695801,808.553955 
	C579.555115,798.732544 579.790527,788.865112 578.905884,779.104614 
	C577.535583,763.985046 571.867188,750.765137 558.860779,741.788513 
	C549.404358,735.262024 538.559387,732.961060 526.349365,732.149902 
M2014.247314,736.193115 
	C1986.764038,728.044617 1960.536743,732.002563 1934.609375,743.825439 
	C1937.315796,753.185181 1939.825195,761.863953 1942.410278,770.804504 
	C1943.575562,770.316772 1944.180786,770.097900 1944.756226,769.817688 
	C1959.442261,762.665588 1974.671509,758.706787 1991.045898,762.482483 
	C1999.935791,764.532349 2004.806519,771.615662 2003.090942,779.409729 
	C2002.800659,779.522827 2002.504883,779.727966 2002.200195,779.742126 
	C2000.203613,779.834961 1998.204590,779.869202 1996.207642,779.954346 
	C1978.632935,780.703247 1961.611694,783.412781 1946.153198,792.703674 
	C1922.468506,806.938660 1917.492188,841.092285 1936.894775,860.056335 
	C1951.851074,874.674561 1969.946899,875.287231 1988.451660,868.869629 
	C1995.334473,866.482666 2001.269775,861.364197 2007.889648,857.337708 
	C2008.380127,860.000610 2008.799927,863.233643 2009.639526,866.353699 
	C2009.959839,867.543579 2011.227295,869.372986 2012.089233,869.387695 
	C2023.844360,869.589233 2035.604004,869.523315 2047.329834,869.523315 
	C2046.795044,860.148987 2046.012207,851.379272 2045.850464,842.598145 
	C2045.464111,821.617249 2046.147461,800.585938 2044.934326,779.659851 
	C2043.777832,759.711060 2034.535156,744.234070 2014.247314,736.193115 
M2693.005859,747.466248 
	C2702.951660,756.891296 2712.897461,766.316284 2723.031982,775.919861 
	C2720.474609,778.640320 2718.337402,781.169861 2715.939941,783.421936 
	C2702.041748,796.475952 2688.040039,809.419800 2674.154541,822.487183 
	C2659.175049,836.583984 2644.267822,850.757751 2629.390869,864.962280 
	C2628.267334,866.034912 2627.634277,867.621155 2626.666260,869.136230 
	C2630.824463,869.136230 2634.100586,869.136230 2637.376709,869.136230 
	C2653.533447,869.136169 2669.691162,869.223328 2685.845703,869.036499 
	C2688.118408,869.010193 2690.948730,868.269836 2692.551270,866.801636 
	C2707.949707,852.694336 2723.169678,838.391296 2738.381348,824.081421 
	C2753.824463,809.553955 2769.143066,794.893372 2784.653320,780.438477 
	C2787.856689,777.453003 2788.435791,775.467712 2784.836670,772.197632 
	C2770.478027,759.152161 2756.300049,745.904846 2742.189209,732.590027 
	C2726.247803,717.548096 2710.569092,702.224792 2694.467041,687.358887 
	C2691.937744,685.023926 2687.801270,683.361633 2684.357178,683.268433 
	C2668.545166,682.840332 2652.715088,683.079956 2636.891357,683.079956 
	C2633.383789,683.079956 2629.875977,683.079956 2625.219482,683.079956 
	C2626.976074,685.160339 2627.709473,686.226257 2628.632080,687.090271 
	C2635.525391,693.545837 2642.483887,699.931580 2649.369141,706.395569 
	C2663.759766,719.905823 2678.117920,733.450623 2693.005859,747.466248 
M385.499695,815.490479 
	C402.645081,815.596741 419.791656,815.622009 436.934814,815.877502 
	C440.379547,815.928894 442.256653,815.284180 442.200592,811.377625 
	C442.079315,802.929688 442.963898,794.396423 442.063995,786.045959 
	C440.424469,770.832703 434.669739,757.230957 423.519531,746.239136 
	C403.437653,726.442810 361.268188,726.889221 339.613098,746.759949 
	C316.031403,768.398438 310.921814,795.613647 318.061646,825.647705 
	C323.097504,846.831299 336.653809,861.052063 357.319366,867.595093 
	C382.637207,875.611145 407.869690,872.880066 432.710663,864.774048 
	C433.782562,864.424316 435.020660,862.005676 434.824615,860.765320 
	C433.511475,852.457642 431.830139,844.208191 430.279572,835.999939 
	C421.433685,837.543091 413.031555,839.368530 404.533142,840.404419 
	C392.687012,841.848389 380.929962,841.356995 369.859436,836.095764 
	C360.805695,831.793030 355.280792,823.603882 356.141479,815.490417 
	C365.565796,815.490417 375.032715,815.490417 385.499695,815.490479 
M271.499695,869.502014 
	C280.579865,869.502014 289.660034,869.502014 298.692932,869.502014 
	C298.692932,857.251892 298.692932,845.840881 298.692932,833.911865 
	C274.007996,833.911865 249.626282,833.911865 224.920563,833.911865 
	C224.920563,783.824890 224.920563,734.260559 224.920563,684.678833 
	C210.886322,684.678833 197.188934,684.678833 183.661804,684.678833 
	C183.661804,746.455688 183.661804,807.827820 183.661804,869.501953 
	C212.913483,869.501953 241.706573,869.501953 271.499695,869.502014 
M1875.864014,840.366394 
	C1885.184692,815.173767 1894.500366,789.979370 1903.828247,764.789429 
	C1907.439087,755.038879 1911.077881,745.298645 1914.895386,735.039001 
	C1900.596191,735.039001 1886.960449,734.961426 1873.329224,735.176636 
	C1872.155518,735.195129 1870.312256,736.959900 1869.958984,738.239075 
	C1863.156738,762.869019 1856.492920,787.537598 1849.898071,812.224243 
	C1848.437744,817.690430 1847.350098,823.256226 1846.135986,828.578369 
	C1837.362183,797.313110 1828.632202,766.203552 1819.999878,735.442383 
	C1804.312012,735.442383 1789.465820,735.442383 1774.227417,735.442383 
	C1778.645752,747.585144 1782.884033,759.244019 1787.129883,770.900146 
	C1798.715088,802.706177 1810.269409,834.523621 1822.004150,866.274475 
	C1822.518311,867.665344 1824.677734,869.338196 1826.098877,869.364746 
	C1838.910156,869.604187 1851.727539,869.504822 1864.781494,869.504822 
	C1868.370972,859.966003 1871.929810,850.508728 1875.864014,840.366394 
M2125.727539,713.507080 
	C2125.727539,708.741394 2125.727539,703.975647 2125.727539,698.914978 
	C2124.118164,699.113464 2123.141846,699.117493 2122.231445,699.363892 
	C2111.176025,702.356018 2100.166748,705.531250 2089.060303,708.317932 
	C2085.461914,709.220825 2084.305420,710.914062 2084.428223,714.484985 
	C2084.660156,721.225342 2084.495117,727.979370 2084.495117,735.126160 
	C2078.208008,735.126160 2072.631104,735.126160 2066.914795,735.126160 
	C2066.914795,745.462708 2066.914795,755.377686 2066.914795,765.961182 
	C2072.826416,765.961182 2078.555664,765.961182 2084.493408,765.961182 
	C2084.493408,778.595825 2084.309082,790.566956 2084.545166,802.529724 
	C2084.781494,814.489746 2084.775146,826.515747 2086.103027,838.375244 
	C2087.350342,849.511536 2091.820801,859.467651 2102.189941,865.620789 
	C2118.330078,875.198730 2135.395264,873.080200 2152.545410,869.640442 
	C2153.398193,869.469360 2154.628906,868.110168 2154.640869,867.288879 
	C2154.786377,857.400879 2154.735107,847.510071 2154.735107,837.518677 
	C2150.618652,837.786743 2147.493408,838.061646 2144.362305,838.181580 
	C2132.544434,838.634094 2126.768799,834.050049 2126.241943,822.154541 
	C2125.557129,806.697266 2125.849609,791.196594 2125.731201,775.714600 
	C2125.707275,772.604980 2125.727539,769.495056 2125.727539,765.928528 
	C2135.828369,765.928528 2145.403564,765.928528 2155.149414,765.928528 
	C2155.149414,755.406067 2155.149414,745.367249 2155.149414,735.057251 
	C2145.324219,735.057251 2135.886230,735.057251 2125.727539,735.057251 
	C2125.727539,728.032288 2125.727539,721.268616 2125.727539,713.507080 
M1231.808228,842.499939 
	C1231.808228,851.301147 1231.808228,860.102417 1231.808228,869.180054 
	C1245.919189,869.180054 1259.636841,869.180054 1273.493408,869.180054 
	C1273.493408,807.497192 1273.493408,746.136658 1273.493408,684.529907 
	C1259.558594,684.529907 1245.988159,684.529907 1231.808228,684.529907 
	C1231.808228,737.020447 1231.808228,789.260193 1231.808228,842.499939 
M818.190979,815.500061 
	C818.190979,788.782410 818.190979,762.064697 818.190979,735.431641 
	C803.836304,735.431641 790.142212,735.431641 776.435486,735.431641 
	C776.435486,780.197083 776.435486,824.571960 776.435486,869.182007 
	C790.429138,869.182007 804.140259,869.182007 818.190979,869.182007 
	C818.190979,851.410583 818.190979,833.955322 818.190979,815.500061 
M2179.572266,852.499207 
	C2179.572266,858.065796 2179.572266,863.632385 2179.572266,869.060486 
	C2194.046631,869.060486 2207.593994,869.060486 2221.196777,869.060486 
	C2221.196777,824.267456 2221.196777,779.904175 2221.196777,735.347534 
	C2207.192139,735.347534 2193.481689,735.347534 2179.572266,735.347534 
	C2179.572266,774.285706 2179.572266,812.892456 2179.572266,852.499207 
M2208.274902,674.008911 
	C2192.814697,670.156494 2179.038086,678.082825 2177.164551,691.908142 
	C2175.557373,703.772217 2182.757324,714.584717 2193.964844,717.137878 
	C2206.722412,720.044067 2219.578369,713.635315 2222.950439,703.056885 
	C2226.692139,691.319580 2221.445068,677.784302 2208.274902,674.008911 
M813.127502,712.693176 
	C814.524536,711.069824 816.140503,709.586182 817.280884,707.799011 
	C822.388672,699.794861 822.050537,688.518311 816.643860,681.593750 
	C810.879578,674.211060 799.965881,671.126892 789.990967,673.959534 
	C781.134399,676.474548 775.665955,682.189575 774.210205,691.243042 
	C772.649597,700.948486 775.580566,709.297852 784.279175,714.310974 
	C793.679199,719.728333 803.329773,718.892456 813.127502,712.693176 
z"/>
<path fill="#FC0201" opacity="1.000000" stroke="none" 
	d="
M2132.619141,205.419098 
	C2145.215576,221.781296 2148.731201,240.557510 2149.332520,260.185638 
	C2149.747314,273.723846 2149.113770,287.193512 2144.293945,300.039673 
	C2137.195068,318.959991 2123.043457,330.475464 2104.457520,337.134399 
	C2101.650146,338.140228 2098.796631,339.016632 2094.541016,340.423431 
	C2100.167236,342.384613 2104.587646,343.758270 2108.882812,345.449554 
	C2137.060059,356.545197 2151.943115,377.581055 2155.040039,407.394745 
	C2157.049805,426.747223 2157.294189,446.082611 2151.215088,464.777771 
	C2142.217041,492.449951 2122.117920,508.241974 2094.703613,515.825012 
	C2076.389404,520.890869 2057.678711,522.194458 2038.814819,522.204163 
	C1979.492432,522.234558 1920.170166,522.218262 1860.847778,522.220032 
	C1859.525024,522.220093 1858.202271,522.220032 1856.439819,522.220032 
	C1856.439819,406.413025 1856.439819,290.894775 1856.439819,174.863998 
	C1858.219971,174.766235 1859.981323,174.585251 1861.742554,174.585007 
	C1920.231689,174.577286 1978.721191,174.496643 2037.209961,174.642181 
	C2058.061523,174.694077 2078.816162,176.036362 2098.806885,182.810608 
	C2111.977539,187.273682 2123.517578,194.213943 2132.619141,205.419098 
M1990.499878,442.597656 
	C2002.983276,442.452515 2015.488892,442.710571 2027.942993,442.029449 
	C2037.228271,441.521667 2045.457520,437.924866 2050.475830,429.408142 
	C2056.545898,419.105957 2055.936523,408.056580 2053.434082,396.963287 
	C2052.009277,390.647919 2048.582764,385.213806 2042.274658,383.295563 
	C2035.697021,381.295380 2028.723145,379.773712 2021.885010,379.610046 
	C2001.740845,379.127869 1981.578003,379.421692 1961.422485,379.412109 
	C1959.140137,379.411011 1956.857788,379.411957 1954.416748,379.411957 
	C1954.416748,400.723663 1954.416748,421.295624 1954.416748,442.597504 
	C1966.286011,442.597504 1977.892822,442.597504 1990.499878,442.597656 
M2008.499756,254.168854 
	C1990.443970,254.168854 1972.388062,254.168854 1954.573242,254.168854 
	C1954.573242,273.546143 1954.573242,291.950256 1954.573242,310.302521 
	C1955.454956,310.511292 1955.930542,310.722565 1956.406128,310.722321 
	C1979.223511,310.710175 2002.046265,310.963501 2024.855713,310.524628 
	C2035.339233,310.322876 2043.872437,305.613953 2048.151611,295.418335 
	C2051.784180,286.763214 2051.492188,277.762115 2048.341797,269.100189 
	C2046.111450,262.968689 2041.824341,257.739929 2035.143066,256.587158 
	C2026.707153,255.131668 2018.057129,254.918182 2008.499756,254.168854 
z"/>
<path fill="#FC0202" opacity="1.000000" stroke="none" 
	d="
M519.482422,368.906250 
	C519.113281,334.436920 518.895569,300.452728 522.911621,266.625519 
	C524.786743,250.831329 528.955200,235.645081 536.226257,221.424271 
	C547.771973,198.842865 566.989563,185.812088 590.515747,178.388092 
	C610.167847,172.186646 630.521301,169.500580 650.974609,169.182358 
	C678.086914,168.760544 705.253479,169.021622 732.334839,170.300339 
	C754.317566,171.338364 775.909058,175.700500 795.809875,185.812149 
	C822.117615,199.179214 835.619934,221.973160 842.051025,249.799255 
	C846.805359,270.370422 847.918030,291.333527 848.115173,312.308014 
	C848.382751,340.781097 848.400391,369.271606 847.689575,397.733765 
	C847.179688,418.154572 845.124451,438.463715 838.913452,458.192596 
	C828.740906,490.505096 806.750366,509.990936 774.696045,519.172668 
	C754.216614,525.038879 733.218628,527.640686 712.086609,527.713745 
	C684.146118,527.810242 656.145569,527.378601 628.274902,525.570618 
	C605.604309,524.100037 583.552063,518.774963 564.025024,506.047852 
	C548.902405,496.191376 538.523254,482.556793 531.915833,465.900543 
	C524.771851,447.891632 521.984924,429.014160 521.007690,409.822540 
	C520.322021,396.355652 519.998230,382.870331 519.482422,368.906250 
M748.098938,299.557190 
	C747.698547,296.587036 747.354553,293.608002 746.889038,290.648102 
	C743.053650,266.262085 731.087402,253.558609 706.555054,251.241013 
	C690.757874,249.748657 674.611389,250.337051 658.765930,251.687775 
	C651.373840,252.317902 643.586670,255.856674 637.282959,260.041779 
	C626.266541,267.355713 622.781006,279.626160 621.055542,291.994141 
	C617.151428,319.979309 617.698059,348.162201 618.857361,376.282684 
	C619.375671,388.854248 620.637207,401.549500 623.209961,413.843628 
	C626.527771,429.698212 636.215515,440.781525 652.787903,443.986877 
	C674.234863,448.135040 695.793457,448.482635 717.186157,443.538910 
	C728.766418,440.862762 737.399170,433.796265 741.619080,422.742615 
	C744.670227,414.750458 747.198242,406.209595 747.921082,397.739502 
	C750.684814,365.353424 750.585938,332.896057 748.098938,299.557190 
z"/>
<path fill="#FC0302" opacity="1.000000" stroke="none" 
	d="
M1015.299072,445.858734 
	C1023.855408,447.767578 1032.054688,450.778198 1040.313721,450.952026 
	C1055.552124,451.272766 1070.950684,450.916626 1086.049805,449.004486 
	C1101.544189,447.042297 1109.868774,436.475891 1110.183594,421.876892 
	C1110.600098,402.563965 1104.269653,392.415314 1087.466797,389.078125 
	C1074.978027,386.597717 1062.062134,386.256531 1049.332153,385.006744 
	C1025.996704,382.715820 1002.550659,381.219757 979.353943,377.950470 
	C959.945251,375.215027 942.383301,367.257568 928.266052,352.991180 
	C918.866150,343.491974 913.536072,331.732941 910.643188,318.986816 
	C904.042847,289.906036 904.222839,260.782562 912.626587,232.081467 
	C921.411560,202.078262 942.832397,184.530502 971.888855,176.243088 
	C994.583435,169.770142 1018.228638,169.151871 1041.704224,168.482147 
	C1069.712036,167.683136 1097.642334,168.850571 1125.437744,172.657578 
	C1145.264404,175.373108 1163.743164,180.889877 1177.989136,196.151306 
	C1187.958618,206.831467 1194.237915,219.572708 1196.272339,233.692825 
	C1198.540283,249.433151 1198.815674,265.461029 1199.927856,281.365845 
	C1199.970825,281.982239 1199.696777,282.620819 1199.482788,283.685425 
	C1195.950562,283.685425 1192.504517,283.682068 1189.058350,283.685944 
	C1163.395996,283.714874 1137.732666,283.643402 1112.072021,283.868896 
	C1107.440796,283.909607 1106.206177,282.409393 1106.183228,277.903717 
	C1106.116699,264.848785 1102.651611,253.307022 1088.979004,248.205948 
	C1083.582520,246.192627 1077.775635,244.289474 1072.115845,244.166626 
	C1058.003052,243.860260 1043.725952,243.454254 1029.770752,245.169617 
	C1002.206177,248.557816 998.748352,270.719879 1006.103394,290.550934 
	C1010.299438,301.864716 1020.825012,304.976898 1031.580688,305.955902 
	C1049.472412,307.584351 1067.441772,308.339935 1085.350342,309.807220 
	C1108.720581,311.721985 1132.248657,313.184235 1154.614136,320.979187 
	C1176.635742,328.654236 1192.511963,343.411560 1201.090454,365.234009 
	C1209.699219,387.133789 1210.080200,410.185791 1208.279541,433.169678 
	C1207.352417,445.004364 1205.253784,456.966644 1201.898682,468.344604 
	C1195.580322,489.771667 1180.133911,503.438507 1160.551514,513.095337 
	C1139.873779,523.292358 1117.485718,525.195312 1095.098999,526.960999 
	C1067.497192,529.138000 1039.838013,529.015564 1012.265991,526.677795 
	C991.575012,524.923523 970.770264,523.042358 951.328186,514.768860 
	C928.953308,505.247437 915.061890,488.592102 909.667236,464.788605 
	C905.471436,446.274963 906.026794,427.464050 905.378296,408.333313 
	C936.724365,408.333313 967.769653,408.333313 999.030334,408.333313 
	C1000.207275,422.730499 999.253784,437.840668 1015.299072,445.858734 
z"/>
<path fill="#FC0201" opacity="1.000000" stroke="none" 
	d="
M1371.728149,299.962524 
	C1372.023071,300.288177 1372.317871,300.613831 1372.887085,301.513123 
	C1374.359985,302.534088 1375.559570,303.373962 1376.756958,303.370850 
	C1401.238770,303.307037 1425.720337,303.131989 1450.202148,303.013458 
	C1459.867798,302.966644 1469.540039,302.789581 1479.197998,303.064941 
	C1487.829590,303.311035 1487.981567,303.401215 1487.982178,294.621918 
	C1487.984375,257.124878 1488.061768,219.627487 1487.890381,182.131226 
	C1487.868164,177.283279 1489.381226,175.862122 1494.172241,175.896835 
	C1521.001953,176.091278 1547.833984,175.972733 1574.665161,175.995819 
	C1582.798584,176.002808 1582.000244,175.210434 1582.001099,183.121872 
	C1582.013550,292.113251 1582.006348,401.104645 1582.031128,510.096039 
	C1582.031616,512.405090 1582.659302,514.748352 1582.405518,517.009460 
	C1582.265381,518.258362 1581.139526,519.935425 1580.027954,520.407959 
	C1578.437744,521.084045 1576.453979,520.959167 1574.638062,520.960876 
	C1547.973511,520.986572 1521.308960,520.979492 1494.644409,520.972839 
	C1488.001221,520.971191 1487.988159,520.959106 1487.987427,514.312500 
	C1487.983154,474.648956 1487.988770,434.985443 1487.982300,395.321899 
	C1487.981079,387.696014 1486.281128,386.021698 1478.558228,386.020111 
	C1445.394165,386.013367 1412.230225,386.013367 1379.066162,386.016266 
	C1371.552368,386.016907 1370.021973,387.538666 1370.021362,395.019348 
	C1370.018677,431.183167 1370.004272,467.346985 1370.056641,503.510712 
	C1370.061157,506.643768 1370.426758,509.786987 1370.788940,512.906433 
	C1371.442871,518.540955 1369.446899,520.972351 1363.921753,520.973877 
	C1336.923950,520.981262 1309.926025,520.989929 1282.928223,520.946228 
	C1280.675781,520.942627 1278.423828,520.553650 1276.125610,520.339417 
	C1276.057983,519.205017 1275.984619,518.549561 1275.984619,517.894104 
	C1275.978271,405.736298 1276.000488,293.578461 1275.893799,181.420746 
	C1275.889404,176.772675 1277.778320,175.903412 1281.873779,175.922775 
	C1309.037720,176.051239 1336.202393,175.986832 1363.366943,175.988297 
	C1370.006958,175.988647 1370.020508,175.993988 1370.021729,182.653091 
	C1370.028320,220.905869 1370.016968,259.158661 1370.100830,297.411285 
	C1370.102783,298.262878 1371.162109,299.112183 1371.728149,299.962524 
z"/>
<path fill="#FC0202" opacity="1.000000" stroke="none" 
	d="
M2189.713867,493.671570 
	C2202.314453,452.093292 2214.787598,410.895752 2227.268799,369.700714 
	C2241.625000,322.318756 2256.000000,274.942505 2270.343506,227.556778 
	C2275.301025,211.180618 2280.235840,194.797241 2285.065430,178.383209 
	C2285.903564,175.534470 2287.282227,174.455933 2290.348633,174.460846 
	C2336.164795,174.534271 2381.980713,174.514572 2427.796631,174.405472 
	C2430.879883,174.398132 2432.097900,175.595062 2432.931641,178.384155 
	C2443.351562,213.245590 2453.842773,248.085938 2464.371338,282.914764 
	C2480.813477,337.306732 2497.292480,391.687561 2513.768555,446.069275 
	C2520.896240,469.594666 2528.058594,493.109497 2535.192383,516.632996 
	C2535.673584,518.218933 2536.047119,519.837402 2536.579346,521.852112 
	C2534.793701,521.982422 2533.216553,522.196594 2531.639404,522.197937 
	C2500.984619,522.223816 2470.329590,522.146362 2439.675781,522.324097 
	C2435.568359,522.347900 2433.999023,521.073486 2432.912842,517.090088 
	C2427.753174,498.164825 2422.241455,479.334351 2416.648926,460.531403 
	C2416.300537,459.359406 2414.196045,457.936432 2412.903320,457.931274 
	C2377.084473,457.787903 2341.264648,457.878052 2305.446045,457.709473 
	C2301.884033,457.692719 2301.363770,459.620697 2300.655273,462.085083 
	C2295.285889,480.767426 2289.860840,499.433868 2284.553955,518.133911 
	C2283.851807,520.607666 2283.164062,522.277771 2280.040039,522.268616 
	C2247.886475,522.174500 2215.732666,522.206177 2183.578857,522.182861 
	C2183.105957,522.182495 2182.633301,521.928040 2181.373047,521.565857 
	C2184.121826,512.362793 2186.855957,503.208130 2189.713867,493.671570 
M2363.432617,274.938202 
	C2362.123291,270.748840 2360.814209,266.559479 2359.505127,262.370117 
	C2359.092285,262.351105 2358.679688,262.332092 2358.266846,262.313080 
	C2346.959717,301.408936 2335.652588,340.504822 2324.188721,380.142365 
	C2347.623047,380.142365 2370.254639,380.142365 2393.660645,380.142365 
	C2383.522461,344.915405 2373.566406,310.321594 2363.432617,274.938202 
z"/>
<path fill="#FC0101" opacity="1.000000" stroke="none" 
	d="
M236.999847,261.430939 
	C217.506302,261.431030 198.511353,261.309692 179.520309,261.527954 
	C175.467789,261.574493 174.456970,260.322784 174.480347,256.437897 
	C174.633621,230.947464 174.677078,205.454727 174.463104,179.965225 
	C174.424850,175.408325 175.920853,174.482330 180.180679,174.487244 
	C278.647125,174.600800 377.113739,174.574844 475.580322,174.574768 
	C479.021454,174.574768 482.462555,174.574768 486.179962,174.574768 
	C486.298004,176.714218 486.447815,178.173096 486.448669,179.632080 
	C486.463623,204.956818 486.371399,230.282166 486.543976,255.605728 
	C486.574463,260.081055 485.362488,261.581818 480.670013,261.549469 
	C450.181793,261.339355 419.691467,261.433472 389.201813,261.432495 
	C382.447083,261.432281 382.427063,261.440674 382.426117,268.262634 
	C382.414520,350.901184 382.349457,433.539886 382.540985,516.177979 
	C382.553345,521.517578 380.976593,522.372681 376.090454,522.335388 
	C345.769379,522.103699 315.445526,522.224915 285.122620,522.235413 
	C278.584808,522.237671 278.558319,522.249695 278.557678,515.898804 
	C278.549133,433.926636 278.548767,351.954498 278.546295,269.982330 
	C278.546265,268.649475 278.449921,267.308289 278.564697,265.985413 
	C278.859406,262.588562 277.551453,261.322449 273.986359,261.377472 
	C261.826813,261.565186 249.662415,261.437897 236.999847,261.430939 
z"/>
<path fill="#FB0202" opacity="1.000000" stroke="none" 
	d="
M1730.000244,174.570892 
	C1743.138062,174.570801 1755.775757,174.570801 1768.618286,174.570801 
	C1768.618286,290.601440 1768.618286,406.137207 1768.618286,521.975708 
	C1735.781372,521.975708 1703.218750,521.975708 1670.341309,521.975708 
	C1670.341309,406.177094 1670.341309,290.645874 1670.341309,174.570984 
	C1690.280273,174.570984 1709.890259,174.570984 1730.000244,174.570892 
z"/>
<path fill="#040404" opacity="1.000000" stroke="none" 
	d="
M1009.014160,829.943604 
	C1000.807434,800.073669 1003.044189,772.470032 1024.817139,749.054382 
	C1040.710449,731.961975 1068.061768,726.959229 1087.567139,736.945496 
	C1090.461304,738.427185 1093.130737,740.500366 1095.569824,742.674744 
	C1097.986084,744.828796 1099.979736,747.457031 1102.740112,750.523071 
	C1103.297729,745.165039 1103.797974,740.358826 1104.324219,735.303101 
	C1116.431152,735.303101 1128.323853,735.303101 1139.125977,735.303101 
	C1139.125977,777.949463 1139.378052,820.367249 1138.975342,862.778870 
	C1138.851440,875.831726 1135.456055,888.468140 1128.211548,899.648682 
	C1119.168823,913.604675 1105.685791,920.827881 1089.825073,924.131470 
	C1066.678223,928.952637 1043.969727,927.438904 1021.674133,919.390442 
	C1017.257324,917.795959 1015.847229,915.807678 1017.377136,911.015869 
	C1020.043396,902.664551 1021.969055,894.076660 1024.351318,885.032959 
	C1028.532593,886.736084 1032.391846,888.462402 1036.357666,889.893677 
	C1046.800903,893.662720 1057.560669,895.548401 1068.679443,894.474731 
	C1086.111084,892.791443 1097.008667,881.419800 1098.103149,863.801514 
	C1098.337891,860.022339 1098.137329,856.216125 1098.137329,853.168396 
	C1092.029907,857.068665 1086.215820,862.251892 1079.414429,864.865051 
	C1053.029419,875.002380 1023.854248,862.530701 1011.877197,836.745239 
	C1010.895935,834.632690 1010.027954,832.467407 1009.014160,829.943604 
M1085.717285,834.393616 
	C1092.003418,830.502197 1096.476074,824.972961 1096.858276,817.617004 
	C1097.450928,806.210815 1097.753906,794.691040 1096.806274,783.333984 
	C1096.013916,773.836975 1089.904053,766.982788 1080.599609,764.540222 
	C1071.496826,762.150574 1063.117798,764.509766 1056.664062,771.853760 
	C1046.116333,783.856506 1043.854370,808.176086 1051.840454,823.125244 
	C1058.863892,836.272522 1071.428955,840.671631 1085.717285,834.393616 
z"/>
<path fill="#030303" opacity="1.000000" stroke="none" 
	d="
M701.042297,680.984375 
	C701.042297,678.994446 701.042297,677.004517 701.042297,674.603943 
	C714.973145,674.603943 728.666626,674.603943 743.133423,674.603943 
	C743.133423,739.361145 743.133423,804.087463 743.133423,869.180298 
	C731.643127,869.180298 719.583069,869.180298 706.959656,869.180298 
	C706.360718,863.195251 705.755493,857.147583 705.304260,852.638794 
	C701.544556,855.799438 697.423401,859.768433 692.814514,863.053223 
	C670.031433,879.290588 637.927551,874.042786 620.037903,851.762939 
	C599.057251,825.633545 599.763855,773.082886 624.965942,748.451538 
	C643.710876,730.131165 675.568848,726.270203 695.259277,741.300842 
	C697.061401,742.676575 698.609863,744.384644 701.038025,746.648804 
	C701.038025,743.315857 701.038025,740.608459 701.063599,737.562988 
	C701.089233,737.224976 701.311646,737.203186 701.551086,737.137695 
	C701.790527,737.072144 702.187439,736.773865 702.614990,736.872864 
	C703.711487,736.185791 704.959106,735.403564 704.964294,734.613159 
	C705.076355,717.572266 705.014648,700.530334 705.089844,683.489075 
	C705.100220,681.137268 704.283630,680.524780 701.993652,681.065552 
	C701.807922,680.908691 701.337769,680.784241 701.222351,680.772888 
	C701.106934,680.761536 701.042297,680.984375 701.042297,680.984375 
M703.918091,809.033691 
	C704.108826,803.737000 704.300598,798.440369 704.430481,793.142212 
	C704.430847,793.129456 703.522461,793.094543 702.437134,792.952515 
	C702.032043,792.960449 701.626953,792.968384 701.067322,792.103455 
	C702.175354,779.596252 693.421936,766.767395 680.276367,764.482910 
	C667.299927,762.227905 655.478638,769.675537 650.629761,783.456299 
	C646.300842,795.759033 646.122314,808.303345 650.566345,820.624878 
	C657.554321,839.999390 681.033142,845.405823 694.363708,830.823914 
	C699.998352,824.660278 701.081177,816.966370 701.849121,809.125549 
	C702.245178,809.061462 702.641296,808.997375 703.918091,809.033691 
z"/>
<path fill="#020202" opacity="1.000000" stroke="none" 
	d="
M978.978638,790.016113 
	C978.978638,816.645508 978.978638,842.777710 978.978638,869.204407 
	C964.810791,869.204407 951.055969,869.204407 936.997620,869.204407 
	C936.997620,844.011169 937.031921,819.031494 936.956299,794.052246 
	C936.946289,790.749878 936.630127,787.401367 936.019470,784.156311 
	C933.651123,771.570068 925.276672,764.743225 913.956421,765.950134 
	C902.800720,767.139465 893.613037,777.417236 893.587891,788.845703 
	C893.534119,813.342773 893.526306,837.839905 893.500305,862.337036 
	C893.497986,864.477173 893.500000,866.617310 893.500000,869.127319 
	C879.518982,869.127319 865.945129,869.127319 851.489746,869.127319 
	C851.489746,824.602966 851.489746,780.072754 851.489746,735.272461 
	C862.767395,735.272461 874.663330,735.272461 886.777161,735.272461 
	C887.437134,741.235352 888.071655,746.968262 888.815735,753.691406 
	C891.710999,750.397339 893.802002,747.697693 896.214355,745.324890 
	C913.925781,727.903198 946.898132,727.617676 963.392090,744.042114 
	C972.951050,753.560730 976.917969,765.539368 978.422729,778.544373 
	C978.842896,782.175476 978.805969,785.859314 978.978638,790.016113 
z"/>
<path fill="#030303" opacity="1.000000" stroke="none" 
	d="
M2378.910645,765.087280 
	C2392.020020,788.202698 2392.123047,830.779602 2366.721924,854.122925 
	C2352.537354,867.158386 2335.329590,872.570068 2316.396484,872.450317 
	C2293.646240,872.306458 2273.870850,864.835571 2259.981201,846.025269 
	C2247.186768,828.698303 2244.820312,808.737366 2248.356934,788.064209 
	C2254.179199,754.028687 2279.687256,733.026611 2315.084961,732.059021 
	C2334.991211,731.514893 2353.026367,736.123596 2367.612793,750.266296 
	C2371.941895,754.463623 2375.082520,759.886292 2378.910645,765.087280 
M2291.842773,786.538086 
	C2289.036377,799.151917 2289.202637,811.656250 2293.722412,823.859375 
	C2297.272461,833.444885 2303.237793,840.765137 2314.095215,842.107727 
	C2324.927490,843.447266 2333.324707,838.769226 2337.850586,829.202209 
	C2346.603760,810.699280 2347.003174,791.652100 2336.858887,773.612305 
	C2328.331787,758.448242 2308.268555,757.999878 2298.194580,772.252014 
	C2295.382324,776.230286 2293.983154,781.207275 2291.842773,786.538086 
z"/>
<path fill="#030303" opacity="1.000000" stroke="none" 
	d="
M1746.775513,754.171143 
	C1770.876343,784.048767 1767.377075,833.107544 1739.688354,856.228821 
	C1711.753784,879.555359 1664.516968,877.705566 1640.314209,852.005920 
	C1623.720337,834.385559 1620.122681,812.797058 1623.365601,789.763062 
	C1628.499390,753.299683 1656.651489,732.712646 1691.524658,732.045105 
	C1713.036743,731.633362 1731.709717,737.828064 1746.775513,754.171143 
M1677.575806,836.987915 
	C1690.947388,846.520203 1705.789062,843.584473 1713.152100,828.891663 
	C1722.295532,810.645996 1721.918701,791.667664 1712.331543,773.819153 
	C1703.817993,757.969177 1682.741089,758.012512 1672.799194,773.057800 
	C1667.685181,780.796814 1665.817871,789.518860 1665.549683,798.599304 
	C1665.139648,812.481445 1666.504761,825.904846 1677.575806,836.987915 
z"/>
<path fill="#030303" opacity="1.000000" stroke="none" 
	d="
M1511.251221,790.410889 
	C1511.249756,816.838684 1511.249756,842.804932 1511.249756,869.160645 
	C1497.231323,869.160645 1483.528931,869.160645 1468.959961,869.160645 
	C1468.959961,824.518311 1468.959961,780.127502 1468.959961,735.371704 
	C1480.219971,735.371704 1492.275024,735.371704 1504.600708,735.371704 
	C1505.183960,741.126465 1505.772461,746.932617 1506.310913,752.243835 
	C1512.222778,747.480530 1517.558594,741.946350 1523.953613,738.240173 
	C1553.496704,721.118530 1588.776611,737.620789 1594.789551,771.178772 
	C1595.985962,777.856201 1596.614746,784.717163 1596.677856,791.501099 
	C1596.901245,815.485291 1596.765381,839.472778 1596.765747,863.459045 
	C1596.765747,865.256653 1596.765625,867.054321 1596.765625,869.189941 
	C1582.736572,869.189941 1569.165283,869.189941 1554.755371,869.189941 
	C1554.755371,866.887024 1554.755493,864.642761 1554.755371,862.398560 
	C1554.755249,840.577698 1554.854980,818.756104 1554.681030,796.936646 
	C1554.640259,791.824890 1554.099854,786.629700 1553.036499,781.633118 
	C1551.211426,773.057861 1546.002319,767.366882 1537.004639,766.138245 
	C1528.124512,764.925598 1520.605469,768.101562 1515.944214,775.597717 
	C1513.362915,779.748840 1512.751831,785.125183 1511.251221,790.410889 
z"/>
<path fill="#030303" opacity="1.000000" stroke="none" 
	d="
M1405.039062,869.505859 
	C1401.247192,869.505798 1397.948608,869.505798 1394.030396,869.505798 
	C1394.030396,866.683105 1394.030518,864.242065 1394.030518,861.801086 
	C1394.030396,839.302612 1394.128540,816.803528 1393.972656,794.306152 
	C1393.923096,787.139893 1393.069214,780.089050 1388.813599,773.816650 
	C1382.044312,763.839294 1367.794556,764.063782 1360.076782,770.249756 
	C1353.747803,775.322388 1350.261597,781.769958 1350.273438,790.056641 
	C1350.308105,814.387817 1350.241333,838.719238 1350.214844,863.050537 
	C1350.212769,865.016663 1350.214600,866.982849 1350.214600,869.227661 
	C1336.112793,869.227661 1322.526489,869.227661 1308.171387,869.227661 
	C1308.171387,824.590637 1308.171387,780.196045 1308.171387,735.401489 
	C1319.456421,735.401489 1331.330811,735.401489 1343.603638,735.401489 
	C1344.239136,741.070312 1344.880005,746.787415 1345.649292,753.649231 
	C1347.923462,751.038635 1349.619873,748.991150 1351.420532,747.039917 
	C1371.494873,725.285828 1412.259399,726.916138 1427.118042,752.849548 
	C1433.237549,763.529907 1435.785645,775.083130 1435.861206,787.201355 
	C1436.026489,813.697937 1435.966675,840.196045 1435.978271,866.693481 
	C1435.978516,867.481506 1435.750854,868.269653 1435.560669,869.505859 
	C1425.441040,869.505859 1415.486572,869.505859 1405.039062,869.505859 
z"/>
<path fill="#030303" opacity="1.000000" stroke="none" 
	d="
M2536.845703,798.002441 
	C2536.845703,821.972290 2536.845703,845.442627 2536.845703,869.227722 
	C2522.874268,869.227722 2509.129395,869.227722 2494.782959,869.227722 
	C2494.782959,867.395630 2494.782715,865.782898 2494.782715,864.170105 
	C2494.783203,841.013428 2494.876953,817.856018 2494.705078,794.700623 
	C2494.670898,790.098328 2494.205566,785.331726 2492.917725,780.940369 
	C2490.002197,770.999451 2484.507812,766.674255 2475.349365,766.036743 
	C2466.386963,765.412781 2457.788818,770.222961 2454.060059,778.659363 
	C2452.498291,782.192444 2451.435303,786.262756 2451.397705,790.101074 
	C2451.154541,815.087524 2451.258545,840.077393 2451.233887,865.066101 
	C2451.232422,866.365845 2451.093018,867.665466 2451.001221,869.258911 
	C2436.979736,869.258911 2423.227295,869.258911 2408.801025,869.258911 
	C2408.801025,824.542847 2408.801025,780.134460 2408.801025,735.375366 
	C2420.301025,735.375366 2432.192627,735.375366 2444.476807,735.375366 
	C2445.130615,741.032959 2445.786377,746.709290 2446.545654,753.281128 
	C2449.002930,750.653748 2450.803223,748.658875 2452.677002,746.735596 
	C2470.648926,728.290833 2501.254883,726.553284 2520.437500,743.480286 
	C2530.171631,752.069702 2534.368408,763.919495 2535.820312,776.580933 
	C2536.614014,783.503174 2536.532715,790.525635 2536.845703,798.002441 
z"/>
<path fill="#040404" opacity="1.000000" stroke="none" 
	d="
M2977.544922,788.544189 
	C2982.035889,784.376526 2986.258545,780.438171 2990.812256,776.190857 
	C2958.219971,745.424622 2925.824951,714.844666 2892.631592,683.511047 
	C2894.851562,683.392273 2896.034424,683.274414 2897.217285,683.273865 
	C2916.210205,683.264832 2935.203613,683.215576 2954.195312,683.356934 
	C2956.139160,683.371338 2958.588623,683.999939 2959.938477,685.265808 
	C2991.733398,715.080994 3023.410156,745.022217 3055.096924,774.952759 
	C3055.446289,775.282593 3055.642822,775.773987 3056.125732,776.524048 
	C3044.880371,787.223022 3033.628174,797.954285 3022.347412,808.655273 
	C3001.879639,828.071167 2981.421875,847.497864 2960.858398,866.811707 
	C2959.425537,868.157410 2957.161621,869.345886 2955.271484,869.365234 
	C2935.281250,869.570679 2915.288086,869.528625 2895.295898,869.523193 
	C2894.702637,869.523010 2894.109375,869.177185 2892.964844,868.820862 
	C2921.305664,841.913391 2949.291260,815.343384 2977.544922,788.544189 
z"/>
<path fill="#939393" opacity="1.000000" stroke="none" 
	d="
M2766.623047,869.398071 
	C2764.203369,869.417603 2762.172607,869.507019 2760.141846,869.596436 
	C2759.970947,869.196838 2759.800293,868.797241 2759.629395,868.397644 
	C2775.719482,853.156311 2791.805908,837.911011 2807.900635,822.674805 
	C2824.055420,807.382080 2840.218750,792.098572 2857.028076,776.196411 
	C2824.362061,745.360901 2792.101074,714.907532 2759.028809,683.688660 
	C2761.482910,683.409607 2762.711182,683.148987 2763.939209,683.148376 
	C2782.759521,683.139221 2801.580566,683.076721 2820.398438,683.300171 
	C2822.559570,683.325806 2825.183594,684.477234 2826.780029,685.973816 
	C2854.746094,712.188843 2882.576904,738.548096 2910.461670,764.849731 
	C2914.307617,768.477478 2918.284424,771.966064 2922.748779,776.016357 
	C2915.277344,783.092957 2908.213135,789.788818 2901.143555,796.479065 
	C2876.312500,819.978638 2851.515869,843.515015 2826.561035,866.882324 
	C2824.991211,868.352173 2822.190186,869.126831 2819.946533,869.158569 
	C2802.303955,869.408386 2784.657227,869.398132 2766.623047,869.398071 
z"/>
<path fill="#040404" opacity="1.000000" stroke="none" 
	d="
M526.826721,732.156860 
	C538.559387,732.961060 549.404358,735.262024 558.860779,741.788513 
	C571.867188,750.765137 577.535583,763.985046 578.905884,779.104614 
	C579.790527,788.865112 579.555115,798.732544 579.695801,808.553955 
	C579.983704,828.658508 580.186890,848.764282 580.428772,869.186829 
	C568.958130,869.186829 556.722168,869.186829 544.119080,869.186829 
	C543.272644,865.086426 542.418274,860.947571 541.651489,857.233154 
	C535.322571,861.179138 529.679871,866.078552 523.122070,868.521240 
	C505.079987,875.241760 487.124908,874.963074 472.183167,861.256470 
	C450.498383,841.364258 455.995270,805.561584 482.224945,791.337891 
	C498.035034,782.764587 515.213379,780.299622 532.809998,779.904114 
	C537.125244,779.807007 538.407227,778.885620 537.284790,774.456055 
	C535.437744,767.166748 530.377502,763.620789 523.688538,762.205750 
	C508.752838,759.046021 494.684265,762.538513 481.048065,768.541382 
	C479.575806,769.189575 478.129852,769.897461 476.249481,770.774536 
	C473.853821,762.521423 471.580444,754.585144 469.239014,746.668945 
	C468.139709,742.952454 471.261108,742.541748 473.312012,741.637939 
	C487.647339,735.320923 502.681335,732.171570 518.352417,732.106750 
	C521.017944,732.095764 523.683716,732.134277 526.826721,732.156860 
M511.379852,810.724060 
	C509.577728,811.902954 507.636902,812.916382 505.998260,814.290222 
	C499.985260,819.331726 499.446991,826.124817 501.241791,832.948547 
	C502.832794,838.997498 507.763672,841.960510 513.855774,842.621216 
	C520.987549,843.394592 527.188477,841.315002 532.543884,836.378235 
	C542.002869,827.658508 538.284424,816.531677 539.089661,804.640625 
	C529.438293,806.724915 520.765381,808.597900 511.379852,810.724060 
z"/>
<path fill="#040404" opacity="1.000000" stroke="none" 
	d="
M2014.600830,736.357300 
	C2034.535156,744.234070 2043.777832,759.711060 2044.934326,779.659851 
	C2046.147461,800.585938 2045.464111,821.617249 2045.850464,842.598145 
	C2046.012207,851.379272 2046.795044,860.148987 2047.329834,869.523315 
	C2035.604004,869.523315 2023.844360,869.589233 2012.089233,869.387695 
	C2011.227295,869.372986 2009.959839,867.543579 2009.639526,866.353699 
	C2008.799927,863.233643 2008.380127,860.000610 2007.889648,857.337708 
	C2001.269775,861.364197 1995.334473,866.482666 1988.451660,868.869629 
	C1969.946899,875.287231 1951.851074,874.674561 1936.894775,860.056335 
	C1917.492188,841.092285 1922.468506,806.938660 1946.153198,792.703674 
	C1961.611694,783.412781 1978.632935,780.703247 1996.207642,779.954346 
	C1998.204590,779.869202 2000.203613,779.834961 2002.200195,779.742126 
	C2002.504883,779.727966 2002.800659,779.522827 2003.090942,779.409729 
	C2004.806519,771.615662 1999.935791,764.532349 1991.045898,762.482483 
	C1974.671509,758.706787 1959.442261,762.665588 1944.756226,769.817688 
	C1944.180786,770.097900 1943.575562,770.316772 1942.410278,770.804504 
	C1939.825195,761.863953 1937.315796,753.185181 1934.609375,743.825439 
	C1960.536743,732.002563 1986.764038,728.044617 2014.600830,736.357300 
M1968.181396,834.949280 
	C1973.680542,846.112915 1992.323364,845.039734 2000.914673,834.065979 
	C2007.566895,825.568909 2004.407837,815.727844 2005.356079,806.087341 
	C1995.561523,806.031738 1986.518677,806.834290 1977.987671,810.450317 
	C1968.071289,814.653687 1964.098633,824.266357 1968.181396,834.949280 
z"/>
<path fill="#BBBBBB" opacity="1.000000" stroke="none" 
	d="
M2692.747559,747.223755 
	C2678.117920,733.450623 2663.759766,719.905823 2649.369141,706.395569 
	C2642.483887,699.931580 2635.525391,693.545837 2628.632080,687.090271 
	C2627.709473,686.226257 2626.976074,685.160339 2625.219482,683.079956 
	C2629.875977,683.079956 2633.383789,683.079956 2636.891357,683.079956 
	C2652.715088,683.079956 2668.545166,682.840332 2684.357178,683.268433 
	C2687.801270,683.361633 2691.937744,685.023926 2694.467041,687.358887 
	C2710.569092,702.224792 2726.247803,717.548096 2742.189209,732.590027 
	C2756.300049,745.904846 2770.478027,759.152161 2784.836670,772.197632 
	C2788.435791,775.467712 2787.856689,777.453003 2784.653320,780.438477 
	C2769.143066,794.893372 2753.824463,809.553955 2738.381348,824.081421 
	C2723.169678,838.391296 2707.949707,852.694336 2692.551270,866.801636 
	C2690.948730,868.269836 2688.118408,869.010193 2685.845703,869.036499 
	C2669.691162,869.223328 2653.533447,869.136169 2637.376709,869.136230 
	C2634.100586,869.136230 2630.824463,869.136230 2626.666260,869.136230 
	C2627.634277,867.621155 2628.267334,866.034912 2629.390869,864.962280 
	C2644.267822,850.757751 2659.175049,836.583984 2674.154541,822.487183 
	C2688.040039,809.419800 2702.041748,796.475952 2715.939941,783.421936 
	C2718.337402,781.169861 2720.474609,778.640320 2723.031982,775.919861 
	C2712.897461,766.316284 2702.951660,756.891296 2692.747559,747.223755 
z"/>
<path fill="#030303" opacity="1.000000" stroke="none" 
	d="
M384.999695,815.490479 
	C375.032715,815.490417 365.565796,815.490417 356.141479,815.490417 
	C355.280792,823.603882 360.805695,831.793030 369.859436,836.095764 
	C380.929962,841.356995 392.687012,841.848389 404.533142,840.404419 
	C413.031555,839.368530 421.433685,837.543091 430.279572,835.999939 
	C431.830139,844.208191 433.511475,852.457642 434.824615,860.765320 
	C435.020660,862.005676 433.782562,864.424316 432.710663,864.774048 
	C407.869690,872.880066 382.637207,875.611145 357.319366,867.595093 
	C336.653809,861.052063 323.097504,846.831299 318.061646,825.647705 
	C310.921814,795.613647 316.031403,768.398438 339.613098,746.759949 
	C361.268188,726.889221 403.437653,726.442810 423.519531,746.239136 
	C434.669739,757.230957 440.424469,770.832703 442.063995,786.045959 
	C442.963898,794.396423 442.079315,802.929688 442.200592,811.377625 
	C442.256653,815.284180 440.379547,815.928894 436.934814,815.877502 
	C419.791656,815.622009 402.645081,815.596741 384.999695,815.490479 
M370.505432,786.547729 
	C381.575195,786.547729 392.644958,786.547729 403.670410,786.547729 
	C404.598999,770.766418 394.858093,759.771545 380.529572,759.809082 
	C366.821960,759.844910 354.695312,772.692017 355.652954,786.547668 
	C360.251648,786.547668 364.880066,786.547668 370.505432,786.547729 
z"/>
<path fill="#020202" opacity="1.000000" stroke="none" 
	d="
M270.999695,869.501953 
	C241.706573,869.501953 212.913483,869.501953 183.661804,869.501953 
	C183.661804,807.827820 183.661804,746.455688 183.661804,684.678833 
	C197.188934,684.678833 210.886322,684.678833 224.920563,684.678833 
	C224.920563,734.260559 224.920563,783.824890 224.920563,833.911865 
	C249.626282,833.911865 274.007996,833.911865 298.692932,833.911865 
	C298.692932,845.840881 298.692932,857.251892 298.692932,869.502014 
	C289.660034,869.502014 280.579865,869.502014 270.999695,869.501953 
z"/>
<path fill="#030303" opacity="1.000000" stroke="none" 
	d="
M1875.676270,840.708984 
	C1871.929810,850.508728 1868.370972,859.966003 1864.781494,869.504822 
	C1851.727539,869.504822 1838.910156,869.604187 1826.098877,869.364746 
	C1824.677734,869.338196 1822.518311,867.665344 1822.004150,866.274475 
	C1810.269409,834.523621 1798.715088,802.706177 1787.129883,770.900146 
	C1782.884033,759.244019 1778.645752,747.585144 1774.227417,735.442383 
	C1789.465820,735.442383 1804.312012,735.442383 1819.999878,735.442383 
	C1828.632202,766.203552 1837.362183,797.313110 1846.135986,828.578369 
	C1847.350098,823.256226 1848.437744,817.690430 1849.898071,812.224243 
	C1856.492920,787.537598 1863.156738,762.869019 1869.958984,738.239075 
	C1870.312256,736.959900 1872.155518,735.195129 1873.329224,735.176636 
	C1886.960449,734.961426 1900.596191,735.039001 1914.895386,735.039001 
	C1911.077881,745.298645 1907.439087,755.038879 1903.828247,764.789429 
	C1894.500366,789.979370 1885.184692,815.173767 1875.676270,840.708984 
z"/>
<path fill="#030303" opacity="1.000000" stroke="none" 
	d="
M2125.727539,714.006042 
	C2125.727539,721.268616 2125.727539,728.032288 2125.727539,735.057251 
	C2135.886230,735.057251 2145.324219,735.057251 2155.149414,735.057251 
	C2155.149414,745.367249 2155.149414,755.406067 2155.149414,765.928528 
	C2145.403564,765.928528 2135.828369,765.928528 2125.727539,765.928528 
	C2125.727539,769.495056 2125.707275,772.604980 2125.731201,775.714600 
	C2125.849609,791.196594 2125.557129,806.697266 2126.241943,822.154541 
	C2126.768799,834.050049 2132.544434,838.634094 2144.362305,838.181580 
	C2147.493408,838.061646 2150.618652,837.786743 2154.735107,837.518677 
	C2154.735107,847.510071 2154.786377,857.400879 2154.640869,867.288879 
	C2154.628906,868.110168 2153.398193,869.469360 2152.545410,869.640442 
	C2135.395264,873.080200 2118.330078,875.198730 2102.189941,865.620789 
	C2091.820801,859.467651 2087.350342,849.511536 2086.103027,838.375244 
	C2084.775146,826.515747 2084.781494,814.489746 2084.545166,802.529724 
	C2084.309082,790.566956 2084.493408,778.595825 2084.493408,765.961182 
	C2078.555664,765.961182 2072.826416,765.961182 2066.914795,765.961182 
	C2066.914795,755.377686 2066.914795,745.462708 2066.914795,735.126160 
	C2072.631104,735.126160 2078.208008,735.126160 2084.495117,735.126160 
	C2084.495117,727.979370 2084.660156,721.225342 2084.428223,714.484985 
	C2084.305420,710.914062 2085.461914,709.220825 2089.060303,708.317932 
	C2100.166748,705.531250 2111.176025,702.356018 2122.231445,699.363892 
	C2123.141846,699.117493 2124.118164,699.113464 2125.727539,698.914978 
	C2125.727539,703.975647 2125.727539,708.741394 2125.727539,714.006042 
z"/>
<path fill="#020202" opacity="1.000000" stroke="none" 
	d="
M1231.808228,841.999878 
	C1231.808228,789.260193 1231.808228,737.020447 1231.808228,684.529907 
	C1245.988159,684.529907 1259.558594,684.529907 1273.493408,684.529907 
	C1273.493408,746.136658 1273.493408,807.497192 1273.493408,869.180054 
	C1259.636841,869.180054 1245.919189,869.180054 1231.808228,869.180054 
	C1231.808228,860.102417 1231.808228,851.301147 1231.808228,841.999878 
z"/>
<path fill="#020202" opacity="1.000000" stroke="none" 
	d="
M818.190979,816.000122 
	C818.190979,833.955322 818.190979,851.410583 818.190979,869.182007 
	C804.140259,869.182007 790.429138,869.182007 776.435486,869.182007 
	C776.435486,824.571960 776.435486,780.197083 776.435486,735.431641 
	C790.142212,735.431641 803.836304,735.431641 818.190979,735.431641 
	C818.190979,762.064697 818.190979,788.782410 818.190979,816.000122 
z"/>
<path fill="#010101" opacity="1.000000" stroke="none" 
	d="
M2179.572266,851.999146 
	C2179.572266,812.892456 2179.572266,774.285706 2179.572266,735.347534 
	C2193.481689,735.347534 2207.192139,735.347534 2221.196777,735.347534 
	C2221.196777,779.904175 2221.196777,824.267456 2221.196777,869.060486 
	C2207.593994,869.060486 2194.046631,869.060486 2179.572266,869.060486 
	C2179.572266,863.632385 2179.572266,858.065796 2179.572266,851.999146 
z"/>
<path fill="#DA1415" opacity="1.000000" stroke="none" 
	d="
M1371.865112,299.516205 
	C1371.162109,299.112183 1370.102783,298.262878 1370.100830,297.411285 
	C1370.016968,259.158661 1370.028320,220.905869 1370.021729,182.653091 
	C1370.020508,175.993988 1370.006958,175.988647 1363.366943,175.988297 
	C1336.202393,175.986832 1309.037720,176.051239 1281.873779,175.922775 
	C1277.778320,175.903412 1275.889404,176.772675 1275.893799,181.420746 
	C1276.000488,293.578461 1275.978271,405.736298 1275.984619,517.894104 
	C1275.984619,518.549561 1276.057983,519.205017 1276.125610,520.339417 
	C1278.423828,520.553650 1280.675781,520.942627 1282.928223,520.946228 
	C1309.926025,520.989929 1336.923950,520.981262 1363.921753,520.973877 
	C1369.446899,520.972351 1371.442871,518.540955 1370.788940,512.906433 
	C1370.426758,509.786987 1370.061157,506.643768 1370.056641,503.510712 
	C1370.004272,467.346985 1370.018677,431.183167 1370.021362,395.019348 
	C1370.021973,387.538666 1371.552368,386.016907 1379.066162,386.016266 
	C1412.230225,386.013367 1445.394165,386.013367 1478.558228,386.020111 
	C1486.281128,386.021698 1487.981079,387.696014 1487.982300,395.321899 
	C1487.988770,434.985443 1487.983154,474.648956 1487.987427,514.312500 
	C1487.988159,520.959106 1488.001221,520.971191 1494.644409,520.972839 
	C1521.308960,520.979492 1547.973511,520.986572 1574.638062,520.960876 
	C1576.453979,520.959167 1578.437744,521.084045 1580.027954,520.407959 
	C1581.139526,519.935425 1582.265381,518.258362 1582.405518,517.009460 
	C1582.659302,514.748352 1582.031616,512.405090 1582.031128,510.096039 
	C1582.006348,401.104645 1582.013550,292.113251 1582.001099,183.121872 
	C1582.000244,175.210434 1582.798584,176.002808 1574.665161,175.995819 
	C1547.833984,175.972733 1521.001953,176.091278 1494.172241,175.896835 
	C1489.381226,175.862122 1487.868164,177.283279 1487.890381,182.131226 
	C1488.061768,219.627487 1487.984375,257.124878 1487.982178,294.621918 
	C1487.981567,303.401215 1487.829590,303.311035 1479.197998,303.064941 
	C1469.540039,302.789581 1459.867798,302.966644 1450.202148,303.013458 
	C1425.720337,303.131989 1401.238770,303.307037 1376.756958,303.370850 
	C1375.559570,303.373962 1374.359985,302.534088 1373.096191,301.767883 
	C1381.184814,301.352570 1389.338623,301.184448 1397.492554,301.172760 
	C1425.153198,301.133087 1452.814575,301.055206 1480.473999,301.242096 
	C1484.716553,301.270782 1485.791382,299.983826 1485.777954,295.896698 
	C1485.650757,257.239227 1485.711670,218.581116 1485.718384,179.923187 
	C1485.718628,178.298904 1485.718384,176.674606 1485.718384,174.744781 
	C1518.624268,174.744781 1551.015381,174.744781 1584.041138,174.744781 
	C1584.041138,176.487152 1584.040894,178.086670 1584.041016,179.686188 
	C1584.048218,291.995392 1584.029663,404.304657 1584.156250,516.613708 
	C1584.161377,521.153625 1583.118164,522.483582 1578.360474,522.441406 
	C1549.369385,522.184265 1520.375000,522.310852 1491.381714,522.309387 
	C1489.746948,522.309326 1488.112305,522.309387 1485.698730,522.309387 
	C1485.698730,519.122742 1485.698608,516.349915 1485.698730,513.577026 
	C1485.700562,473.752594 1485.632324,433.927887 1485.799927,394.104156 
	C1485.819214,389.532471 1484.575562,388.176453 1479.933716,388.202271 
	C1446.775635,388.386749 1413.615845,388.289642 1380.456665,388.282227 
	C1377.835083,388.281616 1375.213501,388.282135 1372.100830,388.282135 
	C1372.100830,433.191559 1372.100830,477.438477 1372.100830,521.934326 
	C1339.072510,521.934326 1306.545288,521.934326 1273.892822,521.934326 
	C1273.892822,406.078674 1273.892822,290.648315 1273.892822,174.794373 
	C1306.418091,174.794373 1338.791138,174.794373 1372.002075,174.794373 
	C1372.002075,216.252716 1372.002075,257.661285 1371.865112,299.516205 
z"/>
<path fill="#060606" opacity="1.000000" stroke="none" 
	d="
M2208.667480,674.119629 
	C2221.445068,677.784302 2226.692139,691.319580 2222.950439,703.056885 
	C2219.578369,713.635315 2206.722412,720.044067 2193.964844,717.137878 
	C2182.757324,714.584717 2175.557373,703.772217 2177.164551,691.908142 
	C2179.038086,678.082825 2192.814697,670.156494 2208.667480,674.119629 
z"/>
<path fill="#060606" opacity="1.000000" stroke="none" 
	d="
M812.812073,712.873657 
	C803.329773,718.892456 793.679199,719.728333 784.279175,714.310974 
	C775.580566,709.297852 772.649597,700.948486 774.210205,691.243042 
	C775.665955,682.189575 781.134399,676.474548 789.990967,673.959534 
	C799.965881,671.126892 810.879578,674.211060 816.643860,681.593750 
	C822.050537,688.518311 822.388672,699.794861 817.280884,707.799011 
	C816.140503,709.586182 814.524536,711.069824 812.812073,712.873657 
z"/>
<path fill="#010101" opacity="1.000000" stroke="none" 
	d="
M698.928467,736.933044 
	C698.286011,736.292786 697.086060,735.655579 697.082458,735.011719 
	C696.983643,717.471619 696.999390,699.930725 697.053467,682.390137 
	C697.054871,681.935120 697.699280,681.481995 698.573120,681.510132 
	C699.044495,700.305847 698.986511,718.619446 698.928467,736.933044 
z"/>
<path fill="#939393" opacity="1.000000" stroke="none" 
	d="
M699.275574,736.987000 
	C698.986511,718.619446 699.044495,700.305847 699.008789,681.536865 
	C699.386536,681.055847 699.858093,681.030151 700.685913,680.994385 
	C701.042297,680.984375 701.106934,680.761536 701.141357,681.251160 
	C701.221008,700.228271 701.266357,718.715698 701.311646,737.203186 
	C701.311646,737.203186 701.089233,737.224976 701.057617,737.117798 
	C700.558228,737.020691 700.090454,737.030823 699.275574,736.987000 
z"/>
<path fill="#FDF8F8" opacity="1.000000" stroke="none" 
	d="
M1989.999756,442.597595 
	C1977.892822,442.597504 1966.286011,442.597504 1954.416748,442.597504 
	C1954.416748,421.295624 1954.416748,400.723663 1954.416748,379.411957 
	C1956.857788,379.411957 1959.140137,379.411011 1961.422485,379.412109 
	C1981.578003,379.421692 2001.740845,379.127869 2021.885010,379.610046 
	C2028.723145,379.773712 2035.697021,381.295380 2042.274658,383.295563 
	C2048.582764,385.213806 2052.009277,390.647919 2053.434082,396.963287 
	C2055.936523,408.056580 2056.545898,419.105957 2050.475830,429.408142 
	C2045.457520,437.924866 2037.228271,441.521667 2027.942993,442.029449 
	C2015.488892,442.710571 2002.983276,442.452515 1989.999756,442.597595 
z"/>
<path fill="#FEF9F9" opacity="1.000000" stroke="none" 
	d="
M2008.999512,254.168884 
	C2018.057129,254.918182 2026.707153,255.131668 2035.143066,256.587158 
	C2041.824341,257.739929 2046.111450,262.968689 2048.341797,269.100189 
	C2051.492188,277.762115 2051.784180,286.763214 2048.151611,295.418335 
	C2043.872437,305.613953 2035.339233,310.322876 2024.855713,310.524628 
	C2002.046265,310.963501 1979.223511,310.710175 1956.406128,310.722321 
	C1955.930542,310.722565 1955.454956,310.511292 1954.573242,310.302521 
	C1954.573242,291.950256 1954.573242,273.546143 1954.573242,254.168854 
	C1972.388062,254.168854 1990.443970,254.168854 2008.999512,254.168884 
z"/>
<path fill="#FEFCFC" opacity="1.000000" stroke="none" 
	d="
M748.135864,300.010498 
	C750.585938,332.896057 750.684814,365.353424 747.921082,397.739502 
	C747.198242,406.209595 744.670227,414.750458 741.619080,422.742615 
	C737.399170,433.796265 728.766418,440.862762 717.186157,443.538910 
	C695.793457,448.482635 674.234863,448.135040 652.787903,443.986877 
	C636.215515,440.781525 626.527771,429.698212 623.209961,413.843628 
	C620.637207,401.549500 619.375671,388.854248 618.857361,376.282684 
	C617.698059,348.162201 617.151428,319.979309 621.055542,291.994141 
	C622.781006,279.626160 626.266541,267.355713 637.282959,260.041779 
	C643.586670,255.856674 651.373840,252.317902 658.765930,251.687775 
	C674.611389,250.337051 690.757874,249.748657 706.555054,251.241013 
	C731.087402,253.558609 743.053650,266.262085 746.889038,290.648102 
	C747.354553,293.608002 747.698547,296.587036 748.135864,300.010498 
z"/>
<path fill="#FDF8F7" opacity="1.000000" stroke="none" 
	d="
M2363.521484,275.333008 
	C2373.566406,310.321594 2383.522461,344.915405 2393.660645,380.142365 
	C2370.254639,380.142365 2347.623047,380.142365 2324.188721,380.142365 
	C2335.652588,340.504822 2346.959717,301.408936 2358.266846,262.313080 
	C2358.679688,262.332092 2359.092285,262.351105 2359.505127,262.370117 
	C2360.814209,266.559479 2362.123291,270.748840 2363.521484,275.333008 
z"/>
<path fill="#FAFAFA" opacity="1.000000" stroke="none" 
	d="
M1085.376953,834.570740 
	C1071.428955,840.671631 1058.863892,836.272522 1051.840454,823.125244 
	C1043.854370,808.176086 1046.116333,783.856506 1056.664062,771.853760 
	C1063.117798,764.509766 1071.496826,762.150574 1080.599609,764.540222 
	C1089.904053,766.982788 1096.013916,773.836975 1096.806274,783.333984 
	C1097.753906,794.691040 1097.450928,806.210815 1096.858276,817.617004 
	C1096.476074,824.972961 1092.003418,830.502197 1085.376953,834.570740 
z"/>
<path fill="#FBFBFB" opacity="1.000000" stroke="none" 
	d="
M701.254578,809.028931 
	C701.081177,816.966370 699.998352,824.660278 694.363708,830.823914 
	C681.033142,845.405823 657.554321,839.999390 650.566345,820.624878 
	C646.122314,808.303345 646.300842,795.759033 650.629761,783.456299 
	C655.478638,769.675537 667.299927,762.227905 680.276367,764.482910 
	C693.421936,766.767395 702.175354,779.596252 700.758301,792.560120 
	C699.936768,793.039185 699.424255,793.061646 698.477417,793.058167 
	C697.855713,798.281250 697.665649,803.530090 697.540344,808.780518 
	C697.539490,808.814697 698.434998,808.870300 699.300659,808.967773 
	C700.211121,809.022766 700.732849,809.025818 701.254578,809.028931 
z"/>
<path fill="#E3E3E3" opacity="1.000000" stroke="none" 
	d="
M702.179443,681.222473 
	C704.283630,680.524780 705.100220,681.137268 705.089844,683.489075 
	C705.014648,700.530334 705.076355,717.572266 704.964294,734.613159 
	C704.959106,735.403564 703.711487,736.185791 702.667847,736.421387 
	C702.255188,717.654724 702.217285,699.438599 702.179443,681.222473 
z"/>
<path fill="#939393" opacity="1.000000" stroke="none" 
	d="
M701.551880,809.077209 
	C700.732849,809.025818 700.211121,809.022766 699.395508,808.514893 
	C699.038391,803.034729 698.975098,798.059387 698.911743,793.084045 
	C699.424255,793.061646 699.936768,793.039185 700.835571,792.996582 
	C701.626953,792.968384 702.032043,792.960449 702.647461,793.466187 
	C702.917603,798.964355 702.977478,803.948853 703.037354,808.933350 
	C702.641296,808.997375 702.245178,809.061462 701.551880,809.077209 
z"/>
<path fill="#696969" opacity="1.000000" stroke="none" 
	d="
M701.993652,681.065552 
	C702.217285,699.438599 702.255188,717.654724 702.240234,736.322388 
	C702.187439,736.773865 701.790527,737.072144 701.551086,737.137695 
	C701.266357,718.715698 701.221008,700.228271 701.256714,681.262512 
	C701.337769,680.784241 701.807922,680.908691 701.993652,681.065552 
z"/>
<path fill="#E3E3E3" opacity="1.000000" stroke="none" 
	d="
M703.477722,808.983521 
	C702.977478,803.948853 702.917603,798.964355 702.948120,793.524902 
	C703.522461,793.094543 704.430847,793.129456 704.430481,793.142212 
	C704.300598,798.440369 704.108826,803.737000 703.477722,808.983521 
z"/>
<path fill="#FBFBFB" opacity="1.000000" stroke="none" 
	d="
M2291.889404,786.132202 
	C2293.983154,781.207275 2295.382324,776.230286 2298.194580,772.252014 
	C2308.268555,757.999878 2328.331787,758.448242 2336.858887,773.612305 
	C2347.003174,791.652100 2346.603760,810.699280 2337.850586,829.202209 
	C2333.324707,838.769226 2324.927490,843.447266 2314.095215,842.107727 
	C2303.237793,840.765137 2297.272461,833.444885 2293.722412,823.859375 
	C2289.202637,811.656250 2289.036377,799.151917 2291.889404,786.132202 
z"/>
<path fill="#FBFBFB" opacity="1.000000" stroke="none" 
	d="
M1677.306396,836.747559 
	C1666.504761,825.904846 1665.139648,812.481445 1665.549683,798.599304 
	C1665.817871,789.518860 1667.685181,780.796814 1672.799194,773.057800 
	C1682.741089,758.012512 1703.817993,757.969177 1712.331543,773.819153 
	C1721.918701,791.667664 1722.295532,810.645996 1713.152100,828.891663 
	C1705.789062,843.584473 1690.947388,846.520203 1677.306396,836.747559 
z"/>
<path fill="#F9F9F9" opacity="1.000000" stroke="none" 
	d="
M511.736145,810.597412 
	C520.765381,808.597900 529.438293,806.724915 539.089661,804.640625 
	C538.284424,816.531677 542.002869,827.658508 532.543884,836.378235 
	C527.188477,841.315002 520.987549,843.394592 513.855774,842.621216 
	C507.763672,841.960510 502.832794,838.997498 501.241791,832.948547 
	C499.446991,826.124817 499.985260,819.331726 505.998260,814.290222 
	C507.636902,812.916382 509.577728,811.902954 511.736145,810.597412 
z"/>
<path fill="#F9F9F9" opacity="1.000000" stroke="none" 
	d="
M1968.029785,834.588623 
	C1964.098633,824.266357 1968.071289,814.653687 1977.987671,810.450317 
	C1986.518677,806.834290 1995.561523,806.031738 2005.356079,806.087341 
	C2004.407837,815.727844 2007.566895,825.568909 2000.914673,834.065979 
	C1992.323364,845.039734 1973.680542,846.112915 1968.029785,834.588623 
z"/>
<path fill="#F5F5F5" opacity="1.000000" stroke="none" 
	d="
M370.006958,786.547729 
	C364.880066,786.547668 360.251648,786.547668 355.652954,786.547668 
	C354.695312,772.692017 366.821960,759.844910 380.529572,759.809082 
	C394.858093,759.771545 404.598999,770.766418 403.670410,786.547729 
	C392.644958,786.547729 381.575195,786.547729 370.006958,786.547729 
z"/>
<path fill="#010101" opacity="1.000000" stroke="none" 
	d="
M698.477417,793.058167 
	C698.975098,798.059387 699.038391,803.034729 699.006836,808.463013 
	C698.434998,808.870300 697.539490,808.814697 697.540344,808.780518 
	C697.665649,803.530090 697.855713,798.281250 698.477417,793.058167 
z"/>
</svg>